<mxfile host="65bd71144e">
    <diagram id="wuJYF_SpgC5wOruxxHhL" name="페이지-1">
        <mxGraphModel dx="610" dy="910" grid="1" gridSize="10" guides="1" tooltips="1" connect="1" arrows="1" fold="1" page="1" pageScale="1" pageWidth="4681" pageHeight="3300" math="0" shadow="0">
            <root>
                <mxCell id="0"/>
                <mxCell id="1" parent="0"/>
                <mxCell id="93" value="DatabaseRepository" style="swimlane;fontStyle=0;childLayout=stackLayout;horizontal=1;startSize=30;horizontalStack=0;resizeParent=1;resizeParentMax=0;resizeLast=0;collapsible=1;marginBottom=0;" parent="1" vertex="1">
                    <mxGeometry x="2320" y="520" width="350" height="570" as="geometry">
                        <mxRectangle x="220" y="160" width="90" height="30" as="alternateBounds"/>
                    </mxGeometry>
                </mxCell>
                <mxCell id="94" value="+ save(DbItem) : String" style="text;strokeColor=none;fillColor=none;align=left;verticalAlign=middle;spacingLeft=4;spacingRight=4;overflow=hidden;points=[[0,0.5],[1,0.5]];portConstraint=eastwest;rotatable=0;" parent="93" vertex="1">
                    <mxGeometry y="30" width="350" height="30" as="geometry"/>
                </mxCell>
                <mxCell id="100" value="+ findById(int) : DbItem" style="text;strokeColor=none;fillColor=none;align=left;verticalAlign=middle;spacingLeft=4;spacingRight=4;overflow=hidden;points=[[0,0.5],[1,0.5]];portConstraint=eastwest;rotatable=0;" parent="93" vertex="1">
                    <mxGeometry y="60" width="350" height="30" as="geometry"/>
                </mxCell>
                <mxCell id="96" value="+ findByStatus(String) : List&lt;DbItem&gt;" style="text;strokeColor=none;fillColor=none;align=left;verticalAlign=middle;spacingLeft=4;spacingRight=4;overflow=hidden;points=[[0,0.5],[1,0.5]];portConstraint=eastwest;rotatable=0;" parent="93" vertex="1">
                    <mxGeometry y="90" width="350" height="30" as="geometry"/>
                </mxCell>
                <mxCell id="95" value="+ updateStatus(String, StatusConst) : void" style="text;strokeColor=none;fillColor=none;align=left;verticalAlign=middle;spacingLeft=4;spacingRight=4;overflow=hidden;points=[[0,0.5],[1,0.5]];portConstraint=eastwest;rotatable=0;" parent="93" vertex="1">
                    <mxGeometry y="120" width="350" height="30" as="geometry"/>
                </mxCell>
                <mxCell id="370" value="+ updateToonify(String, String) : void" style="text;strokeColor=none;fillColor=none;align=left;verticalAlign=middle;spacingLeft=4;spacingRight=4;overflow=hidden;points=[[0,0.5],[1,0.5]];portConstraint=eastwest;rotatable=0;" parent="93" vertex="1">
                    <mxGeometry y="150" width="350" height="30" as="geometry"/>
                </mxCell>
                <mxCell id="371" value="+ updateObject(String, String) : void" style="text;strokeColor=none;fillColor=none;align=left;verticalAlign=middle;spacingLeft=4;spacingRight=4;overflow=hidden;points=[[0,0.5],[1,0.5]];portConstraint=eastwest;rotatable=0;" parent="93" vertex="1">
                    <mxGeometry y="180" width="350" height="30" as="geometry"/>
                </mxCell>
                <mxCell id="372" value="+ updateHead(String, String) : void" style="text;strokeColor=none;fillColor=none;align=left;verticalAlign=middle;spacingLeft=4;spacingRight=4;overflow=hidden;points=[[0,0.5],[1,0.5]];portConstraint=eastwest;rotatable=0;" parent="93" vertex="1">
                    <mxGeometry y="210" width="350" height="30" as="geometry"/>
                </mxCell>
                <mxCell id="373" value="+ createOrder(String, String, String) : void" style="text;strokeColor=none;fillColor=none;align=left;verticalAlign=middle;spacingLeft=4;spacingRight=4;overflow=hidden;points=[[0,0.5],[1,0.5]];portConstraint=eastwest;rotatable=0;" parent="93" vertex="1">
                    <mxGeometry y="240" width="350" height="30" as="geometry"/>
                </mxCell>
                <mxCell id="374" value="+ getNextOrder() : Optional&lt;WorkQueueOrder&gt;" style="text;strokeColor=none;fillColor=none;align=left;verticalAlign=middle;spacingLeft=4;spacingRight=4;overflow=hidden;points=[[0,0.5],[1,0.5]];portConstraint=eastwest;rotatable=0;" parent="93" vertex="1">
                    <mxGeometry y="270" width="350" height="30" as="geometry"/>
                </mxCell>
                <mxCell id="375" value="+ getOrderStatus(String) : String" style="text;strokeColor=none;fillColor=none;align=left;verticalAlign=middle;spacingLeft=4;spacingRight=4;overflow=hidden;points=[[0,0.5],[1,0.5]];portConstraint=eastwest;rotatable=0;" parent="93" vertex="1">
                    <mxGeometry y="300" width="350" height="30" as="geometry"/>
                </mxCell>
                <mxCell id="376" value="+ setOrderStatusWaiting(String) : void" style="text;strokeColor=none;fillColor=none;align=left;verticalAlign=middle;spacingLeft=4;spacingRight=4;overflow=hidden;points=[[0,0.5],[1,0.5]];portConstraint=eastwest;rotatable=0;" parent="93" vertex="1">
                    <mxGeometry y="330" width="350" height="30" as="geometry"/>
                </mxCell>
                <mxCell id="377" value="+ setOrderStatusLoading(String) : void" style="text;strokeColor=none;fillColor=none;align=left;verticalAlign=middle;spacingLeft=4;spacingRight=4;overflow=hidden;points=[[0,0.5],[1,0.5]];portConstraint=eastwest;rotatable=0;" parent="93" vertex="1">
                    <mxGeometry y="360" width="350" height="30" as="geometry"/>
                </mxCell>
                <mxCell id="378" value="+ setOrderStatusComplete(String) : void" style="text;strokeColor=none;fillColor=none;align=left;verticalAlign=middle;spacingLeft=4;spacingRight=4;overflow=hidden;points=[[0,0.5],[1,0.5]];portConstraint=eastwest;rotatable=0;" parent="93" vertex="1">
                    <mxGeometry y="390" width="350" height="30" as="geometry"/>
                </mxCell>
                <mxCell id="379" value="+ findAllBodys(Sexuality) : List&lt;BodyInfoItem&gt;" style="text;strokeColor=none;fillColor=none;align=left;verticalAlign=middle;spacingLeft=4;spacingRight=4;overflow=hidden;points=[[0,0.5],[1,0.5]];portConstraint=eastwest;rotatable=0;" parent="93" vertex="1">
                    <mxGeometry y="420" width="350" height="30" as="geometry"/>
                </mxCell>
                <mxCell id="380" value="+ findAllHairs(Sexuality) : List&lt;HairInfoItem&gt;" style="text;strokeColor=none;fillColor=none;align=left;verticalAlign=middle;spacingLeft=4;spacingRight=4;overflow=hidden;points=[[0,0.5],[1,0.5]];portConstraint=eastwest;rotatable=0;" parent="93" vertex="1">
                    <mxGeometry y="450" width="350" height="30" as="geometry"/>
                </mxCell>
                <mxCell id="381" value="+ findAllStyles(Sexuality) : List&lt;StyleCodeItem&gt;" style="text;strokeColor=none;fillColor=none;align=left;verticalAlign=middle;spacingLeft=4;spacingRight=4;overflow=hidden;points=[[0,0.5],[1,0.5]];portConstraint=eastwest;rotatable=0;" parent="93" vertex="1">
                    <mxGeometry y="480" width="350" height="30" as="geometry"/>
                </mxCell>
                <mxCell id="382" value="+ getGPUStatus() : List&lt;GpuWorkingStatus&gt;" style="text;strokeColor=none;fillColor=none;align=left;verticalAlign=middle;spacingLeft=4;spacingRight=4;overflow=hidden;points=[[0,0.5],[1,0.5]];portConstraint=eastwest;rotatable=0;" parent="93" vertex="1">
                    <mxGeometry y="510" width="350" height="30" as="geometry"/>
                </mxCell>
                <mxCell id="383" value="+ setGPUStatus(Integer, String) : void" style="text;strokeColor=none;fillColor=none;align=left;verticalAlign=middle;spacingLeft=4;spacingRight=4;overflow=hidden;points=[[0,0.5],[1,0.5]];portConstraint=eastwest;rotatable=0;" parent="93" vertex="1">
                    <mxGeometry y="540" width="350" height="30" as="geometry"/>
                </mxCell>
                <mxCell id="160" style="edgeStyle=elbowEdgeStyle;elbow=vertical;html=1;" parent="1" source="384" target="383" edge="1">
                    <mxGeometry relative="1" as="geometry">
                        <mxPoint x="2955" y="1380" as="sourcePoint"/>
                        <mxPoint x="2496" y="1310" as="targetPoint"/>
                    </mxGeometry>
                </mxCell>
                <mxCell id="118" value="Storage" style="swimlane;fontStyle=0;childLayout=stackLayout;horizontal=1;startSize=30;horizontalStack=0;resizeParent=1;resizeParentMax=0;resizeLast=0;collapsible=1;marginBottom=0;" parent="1" vertex="1">
                    <mxGeometry x="2045" y="1410" width="140" height="86" as="geometry"/>
                </mxCell>
                <mxCell id="119" value="+ save(File) : String" style="text;strokeColor=none;fillColor=none;align=left;verticalAlign=middle;spacingLeft=4;spacingRight=4;overflow=hidden;points=[[0,0.5],[1,0.5]];portConstraint=eastwest;rotatable=0;" parent="118" vertex="1">
                    <mxGeometry y="30" width="140" height="30" as="geometry"/>
                </mxCell>
                <mxCell id="270" value="+ getFile(String) : File" style="text;strokeColor=none;fillColor=none;align=left;verticalAlign=top;spacingLeft=4;spacingRight=4;overflow=hidden;rotatable=0;points=[[0,0.5],[1,0.5]];portConstraint=eastwest;" parent="118" vertex="1">
                    <mxGeometry y="60" width="140" height="26" as="geometry"/>
                </mxCell>
                <mxCell id="122" value="DbItem" style="swimlane;fontStyle=0;childLayout=stackLayout;horizontal=1;startSize=30;horizontalStack=0;resizeParent=1;resizeParentMax=0;resizeLast=0;collapsible=1;marginBottom=0;" parent="1" vertex="1">
                    <mxGeometry x="1420" y="153" width="220" height="360" as="geometry"/>
                </mxCell>
                <mxCell id="124" value="- id : String" style="text;strokeColor=none;fillColor=none;align=left;verticalAlign=middle;spacingLeft=4;spacingRight=4;overflow=hidden;points=[[0,0.5],[1,0.5]];portConstraint=eastwest;rotatable=0;" parent="122" vertex="1">
                    <mxGeometry y="30" width="220" height="30" as="geometry"/>
                </mxCell>
                <mxCell id="309" value="- sexuality : Sexuality" style="text;strokeColor=none;fillColor=none;align=left;verticalAlign=middle;spacingLeft=4;spacingRight=4;overflow=hidden;points=[[0,0.5],[1,0.5]];portConstraint=eastwest;rotatable=0;" parent="122" vertex="1">
                    <mxGeometry y="60" width="220" height="30" as="geometry"/>
                </mxCell>
                <mxCell id="125" value="- photoUrl : String" style="text;strokeColor=none;fillColor=none;align=left;verticalAlign=middle;spacingLeft=4;spacingRight=4;overflow=hidden;points=[[0,0.5],[1,0.5]];portConstraint=eastwest;rotatable=0;" parent="122" vertex="1">
                    <mxGeometry y="90" width="220" height="30" as="geometry"/>
                </mxCell>
                <mxCell id="308" value="- toonifyUrl : String" style="text;strokeColor=none;fillColor=none;align=left;verticalAlign=middle;spacingLeft=4;spacingRight=4;overflow=hidden;points=[[0,0.5],[1,0.5]];portConstraint=eastwest;rotatable=0;" parent="122" vertex="1">
                    <mxGeometry y="120" width="220" height="30" as="geometry"/>
                </mxCell>
                <mxCell id="307" value="- headUrl : String" style="text;strokeColor=none;fillColor=none;align=left;verticalAlign=middle;spacingLeft=4;spacingRight=4;overflow=hidden;points=[[0,0.5],[1,0.5]];portConstraint=eastwest;rotatable=0;" parent="122" vertex="1">
                    <mxGeometry y="150" width="220" height="30" as="geometry"/>
                </mxCell>
                <mxCell id="143" value="- objectUrl : String" style="text;strokeColor=none;fillColor=none;align=left;verticalAlign=middle;spacingLeft=4;spacingRight=4;overflow=hidden;points=[[0,0.5],[1,0.5]];portConstraint=eastwest;rotatable=0;" parent="122" vertex="1">
                    <mxGeometry y="180" width="220" height="30" as="geometry"/>
                </mxCell>
                <mxCell id="144" value="- status : StatusCode" style="text;strokeColor=none;fillColor=none;align=left;verticalAlign=middle;spacingLeft=4;spacingRight=4;overflow=hidden;points=[[0,0.5],[1,0.5]];portConstraint=eastwest;rotatable=0;" parent="122" vertex="1">
                    <mxGeometry y="210" width="220" height="30" as="geometry"/>
                </mxCell>
                <mxCell id="146" value="- photoUploadedAt : Timestamp" style="text;strokeColor=none;fillColor=none;align=left;verticalAlign=middle;spacingLeft=4;spacingRight=4;overflow=hidden;points=[[0,0.5],[1,0.5]];portConstraint=eastwest;rotatable=0;" parent="122" vertex="1">
                    <mxGeometry y="240" width="220" height="30" as="geometry"/>
                </mxCell>
                <mxCell id="310" value="- toonifiedAt : Timestamp" style="text;strokeColor=none;fillColor=none;align=left;verticalAlign=middle;spacingLeft=4;spacingRight=4;overflow=hidden;points=[[0,0.5],[1,0.5]];portConstraint=eastwest;rotatable=0;" parent="122" vertex="1">
                    <mxGeometry y="270" width="220" height="30" as="geometry"/>
                </mxCell>
                <mxCell id="145" value="- headCreatedAt : Timestamp" style="text;strokeColor=none;fillColor=none;align=left;verticalAlign=middle;spacingLeft=4;spacingRight=4;overflow=hidden;points=[[0,0.5],[1,0.5]];portConstraint=eastwest;rotatable=0;" parent="122" vertex="1">
                    <mxGeometry y="300" width="220" height="30" as="geometry"/>
                </mxCell>
                <mxCell id="147" value="- objectCreatedAt : Timestamp" style="text;strokeColor=none;fillColor=none;align=left;verticalAlign=middle;spacingLeft=4;spacingRight=4;overflow=hidden;points=[[0,0.5],[1,0.5]];portConstraint=eastwest;rotatable=0;" parent="122" vertex="1">
                    <mxGeometry y="330" width="220" height="30" as="geometry"/>
                </mxCell>
                <mxCell id="153" style="edgeStyle=elbowEdgeStyle;elbow=vertical;html=1;" parent="1" source="148" target="118" edge="1">
                    <mxGeometry relative="1" as="geometry">
                        <mxPoint x="2112" y="1530" as="targetPoint"/>
                    </mxGeometry>
                </mxCell>
                <mxCell id="148" value="TestStorage" style="swimlane;fontStyle=0;childLayout=stackLayout;horizontal=1;startSize=30;horizontalStack=0;resizeParent=1;resizeParentMax=0;resizeLast=0;collapsible=1;marginBottom=0;shadow=1;strokeColor=default;" parent="1" vertex="1">
                    <mxGeometry x="1935" y="1600" width="140" height="86" as="geometry"/>
                </mxCell>
                <mxCell id="149" value="+ save(File) : String" style="text;strokeColor=none;fillColor=none;align=left;verticalAlign=middle;spacingLeft=4;spacingRight=4;overflow=hidden;points=[[0,0.5],[1,0.5]];portConstraint=eastwest;rotatable=0;shadow=1;" parent="148" vertex="1">
                    <mxGeometry y="30" width="140" height="30" as="geometry"/>
                </mxCell>
                <mxCell id="271" value="+ getFile(String) : File" style="text;strokeColor=none;fillColor=none;align=left;verticalAlign=top;spacingLeft=4;spacingRight=4;overflow=hidden;rotatable=0;points=[[0,0.5],[1,0.5]];portConstraint=eastwest;" parent="148" vertex="1">
                    <mxGeometry y="60" width="140" height="26" as="geometry"/>
                </mxCell>
                <mxCell id="156" style="edgeStyle=elbowEdgeStyle;elbow=vertical;html=1;" parent="1" source="154" target="118" edge="1">
                    <mxGeometry relative="1" as="geometry">
                        <mxPoint x="2115" y="1580" as="targetPoint"/>
                    </mxGeometry>
                </mxCell>
                <mxCell id="154" value="WebStorage" style="swimlane;fontStyle=0;childLayout=stackLayout;horizontal=1;startSize=30;horizontalStack=0;resizeParent=1;resizeParentMax=0;resizeLast=0;collapsible=1;marginBottom=0;shadow=1;strokeColor=default;" parent="1" vertex="1">
                    <mxGeometry x="2155" y="1600" width="170" height="116" as="geometry"/>
                </mxCell>
                <mxCell id="155" value="+ save(File) : String" style="text;strokeColor=none;fillColor=none;align=left;verticalAlign=middle;spacingLeft=4;spacingRight=4;overflow=hidden;points=[[0,0.5],[1,0.5]];portConstraint=eastwest;rotatable=0;shadow=1;" parent="154" vertex="1">
                    <mxGeometry y="30" width="170" height="30" as="geometry"/>
                </mxCell>
                <mxCell id="311" value="+ save(MultipartFile) : String" style="text;strokeColor=none;fillColor=none;align=left;verticalAlign=middle;spacingLeft=4;spacingRight=4;overflow=hidden;points=[[0,0.5],[1,0.5]];portConstraint=eastwest;rotatable=0;shadow=1;" parent="154" vertex="1">
                    <mxGeometry y="60" width="170" height="30" as="geometry"/>
                </mxCell>
                <mxCell id="272" value="+ getFile(String) : File" style="text;strokeColor=none;fillColor=none;align=left;verticalAlign=top;spacingLeft=4;spacingRight=4;overflow=hidden;rotatable=0;points=[[0,0.5],[1,0.5]];portConstraint=eastwest;" parent="154" vertex="1">
                    <mxGeometry y="90" width="170" height="26" as="geometry"/>
                </mxCell>
                <mxCell id="161" value="RestApiController" style="swimlane;fontStyle=0;childLayout=stackLayout;horizontal=1;startSize=30;horizontalStack=0;resizeParent=1;resizeParentMax=0;resizeLast=0;collapsible=1;marginBottom=0;shadow=1;strokeColor=default;" parent="1" vertex="1">
                    <mxGeometry x="1010" y="730" width="370" height="270" as="geometry"/>
                </mxCell>
                <mxCell id="183" value="+ inference(MultipartFile, String, String) : InferenceApiResult" style="text;strokeColor=none;fillColor=none;align=left;verticalAlign=middle;spacingLeft=4;spacingRight=4;overflow=hidden;points=[[0,0.5],[1,0.5]];portConstraint=eastwest;rotatable=0;shadow=1;" parent="161" vertex="1">
                    <mxGeometry y="30" width="370" height="30" as="geometry"/>
                </mxCell>
                <mxCell id="181" value="+ combineAvatar(CombineAvatarDto) : CombineAvatarApiResult" style="text;strokeColor=none;fillColor=none;align=left;verticalAlign=middle;spacingLeft=4;spacingRight=4;overflow=hidden;points=[[0,0.5],[1,0.5]];portConstraint=eastwest;rotatable=0;shadow=1;" parent="161" vertex="1">
                    <mxGeometry y="60" width="370" height="30" as="geometry"/>
                </mxCell>
                <mxCell id="224" value="+ getAvatar(String) : GetAvatarApiResult" style="text;strokeColor=none;fillColor=none;align=left;verticalAlign=middle;spacingLeft=4;spacingRight=4;overflow=hidden;points=[[0,0.5],[1,0.5]];portConstraint=eastwest;rotatable=0;" parent="161" vertex="1">
                    <mxGeometry y="90" width="370" height="30" as="geometry"/>
                </mxCell>
                <mxCell id="228" value="+ getToonify(String) : GetToonifyApiResult" style="text;strokeColor=none;fillColor=none;align=left;verticalAlign=middle;spacingLeft=4;spacingRight=4;overflow=hidden;points=[[0,0.5],[1,0.5]];portConstraint=eastwest;rotatable=0;" parent="161" vertex="1">
                    <mxGeometry y="120" width="370" height="30" as="geometry"/>
                </mxCell>
                <mxCell id="294" value="+ getBodyInfos(String) : List&lt;BodyInfoItem&gt;" style="text;strokeColor=none;fillColor=none;align=left;verticalAlign=middle;spacingLeft=4;spacingRight=4;overflow=hidden;points=[[0,0.5],[1,0.5]];portConstraint=eastwest;rotatable=0;" parent="161" vertex="1">
                    <mxGeometry y="150" width="370" height="30" as="geometry"/>
                </mxCell>
                <mxCell id="295" value="+ getHairInfos(String) : List&lt;HairInfoItem&gt;" style="text;strokeColor=none;fillColor=none;align=left;verticalAlign=middle;spacingLeft=4;spacingRight=4;overflow=hidden;points=[[0,0.5],[1,0.5]];portConstraint=eastwest;rotatable=0;fontStyle=0" parent="161" vertex="1">
                    <mxGeometry y="180" width="370" height="30" as="geometry"/>
                </mxCell>
                <mxCell id="296" value="+ getSexuality(String) : Sexuality" style="text;strokeColor=none;fillColor=none;align=left;verticalAlign=middle;spacingLeft=4;spacingRight=4;overflow=hidden;points=[[0,0.5],[1,0.5]];portConstraint=eastwest;rotatable=0;" parent="161" vertex="1">
                    <mxGeometry y="210" width="370" height="30" as="geometry"/>
                </mxCell>
                <mxCell id="297" value="+ getStyles(String) : List&lt;StyleCodeItem&gt;" style="text;strokeColor=none;fillColor=none;align=left;verticalAlign=middle;spacingLeft=4;spacingRight=4;overflow=hidden;points=[[0,0.5],[1,0.5]];portConstraint=eastwest;rotatable=0;" parent="161" vertex="1">
                    <mxGeometry y="240" width="370" height="30" as="geometry"/>
                </mxCell>
                <mxCell id="166" value="InferenceServerInterface" style="swimlane;fontStyle=0;childLayout=stackLayout;horizontal=1;startSize=30;horizontalStack=0;resizeParent=1;resizeParentMax=0;resizeLast=0;collapsible=1;marginBottom=0;shadow=1;strokeColor=default;" parent="1" vertex="1">
                    <mxGeometry x="760" y="1380" width="355" height="76" as="geometry"/>
                </mxCell>
                <mxCell id="167" value="+ inferenceHead(String, String) : InferenceResult " style="text;strokeColor=none;fillColor=none;align=left;verticalAlign=middle;spacingLeft=4;spacingRight=4;overflow=hidden;points=[[0,0.5],[1,0.5]];portConstraint=eastwest;rotatable=0;shadow=1;" parent="166" vertex="1">
                    <mxGeometry y="30" width="355" height="20" as="geometry"/>
                </mxCell>
                <mxCell id="288" value="+ combineAvatar(String, int, int) : CombineAvatarResult " style="text;strokeColor=none;fillColor=none;align=left;verticalAlign=top;spacingLeft=4;spacingRight=4;overflow=hidden;rotatable=0;points=[[0,0.5],[1,0.5]];portConstraint=eastwest;" parent="166" vertex="1">
                    <mxGeometry y="50" width="355" height="26" as="geometry"/>
                </mxCell>
                <mxCell id="184" style="edgeStyle=elbowEdgeStyle;elbow=vertical;html=1;" parent="1" source="170" target="288" edge="1">
                    <mxGeometry relative="1" as="geometry">
                        <mxPoint x="920" y="1480" as="targetPoint"/>
                    </mxGeometry>
                </mxCell>
                <mxCell id="170" value="TestInferenceServer" style="swimlane;fontStyle=0;childLayout=stackLayout;horizontal=1;startSize=30;horizontalStack=0;resizeParent=1;resizeParentMax=0;resizeLast=0;collapsible=1;marginBottom=0;shadow=1;strokeColor=default;" parent="1" vertex="1">
                    <mxGeometry x="590" y="1540" width="330" height="86" as="geometry"/>
                </mxCell>
                <mxCell id="277" value="+ inferenceHead(String, String) : InferenceResult " style="text;strokeColor=none;fillColor=none;align=left;verticalAlign=middle;spacingLeft=4;spacingRight=4;overflow=hidden;points=[[0,0.5],[1,0.5]];portConstraint=eastwest;rotatable=0;shadow=1;" parent="170" vertex="1">
                    <mxGeometry y="30" width="330" height="30" as="geometry"/>
                </mxCell>
                <mxCell id="289" value="+ combineAvatar(String, int, int) : CombineAvatarResult " style="text;strokeColor=none;fillColor=none;align=left;verticalAlign=top;spacingLeft=4;spacingRight=4;overflow=hidden;rotatable=0;points=[[0,0.5],[1,0.5]];portConstraint=eastwest;" parent="170" vertex="1">
                    <mxGeometry y="60" width="330" height="26" as="geometry"/>
                </mxCell>
                <mxCell id="192" value="Preprocesser" style="swimlane;fontStyle=0;childLayout=stackLayout;horizontal=1;startSize=30;horizontalStack=0;resizeParent=1;resizeParentMax=0;resizeLast=0;collapsible=1;marginBottom=0;shadow=1;strokeColor=default;" parent="1" vertex="1">
                    <mxGeometry x="1410" y="1410" width="240.5" height="60" as="geometry"/>
                </mxCell>
                <mxCell id="193" value="+ process(String) : PreprocessResult" style="text;strokeColor=none;fillColor=none;align=left;verticalAlign=middle;spacingLeft=4;spacingRight=4;overflow=hidden;points=[[0,0.5],[1,0.5]];portConstraint=eastwest;rotatable=0;shadow=1;" parent="192" vertex="1">
                    <mxGeometry y="30" width="240.5" height="30" as="geometry"/>
                </mxCell>
                <mxCell id="207" style="edgeStyle=elbowEdgeStyle;elbow=vertical;html=1;" parent="1" source="199" target="193" edge="1">
                    <mxGeometry relative="1" as="geometry"/>
                </mxCell>
                <mxCell id="199" value="OpenCVPreprocesser" style="swimlane;fontStyle=0;childLayout=stackLayout;horizontal=1;startSize=30;horizontalStack=0;resizeParent=1;resizeParentMax=0;resizeLast=0;collapsible=1;marginBottom=0;shadow=1;strokeColor=default;" parent="1" vertex="1">
                    <mxGeometry x="1314.5" y="1520" width="219.5" height="60" as="geometry"/>
                </mxCell>
                <mxCell id="205" value="+ process(String) : PreprocessResult" style="text;strokeColor=none;fillColor=none;align=left;verticalAlign=middle;spacingLeft=4;spacingRight=4;overflow=hidden;points=[[0,0.5],[1,0.5]];portConstraint=eastwest;rotatable=0;shadow=1;" parent="199" vertex="1">
                    <mxGeometry y="30" width="219.5" height="30" as="geometry"/>
                </mxCell>
                <mxCell id="217" value="InferenceApiResult" style="swimlane;fontStyle=0;childLayout=stackLayout;horizontal=1;startSize=30;horizontalStack=0;resizeParent=1;resizeParentMax=0;resizeLast=0;collapsible=1;marginBottom=0;" parent="1" vertex="1">
                    <mxGeometry x="647" y="420" width="160" height="150" as="geometry"/>
                </mxCell>
                <mxCell id="218" value="- result : int" style="text;strokeColor=none;fillColor=none;align=left;verticalAlign=middle;spacingLeft=4;spacingRight=4;overflow=hidden;points=[[0,0.5],[1,0.5]];portConstraint=eastwest;rotatable=0;" parent="217" vertex="1">
                    <mxGeometry y="30" width="160" height="30" as="geometry"/>
                </mxCell>
                <mxCell id="219" value="- dbId : String " style="text;strokeColor=none;fillColor=none;align=left;verticalAlign=middle;spacingLeft=4;spacingRight=4;overflow=hidden;points=[[0,0.5],[1,0.5]];portConstraint=eastwest;rotatable=0;" parent="217" vertex="1">
                    <mxGeometry y="60" width="160" height="30" as="geometry"/>
                </mxCell>
                <mxCell id="220" value="- headUrl : String" style="text;strokeColor=none;fillColor=none;align=left;verticalAlign=middle;spacingLeft=4;spacingRight=4;overflow=hidden;points=[[0,0.5],[1,0.5]];portConstraint=eastwest;rotatable=0;" parent="217" vertex="1">
                    <mxGeometry y="90" width="160" height="30" as="geometry"/>
                </mxCell>
                <mxCell id="222" value="&lt;div&gt;&lt;span&gt;&amp;nbsp;- toonifyUrl : String&lt;/span&gt;&lt;/div&gt;" style="text;html=1;strokeColor=none;fillColor=none;align=left;verticalAlign=middle;whiteSpace=wrap;rounded=0;" parent="217" vertex="1">
                    <mxGeometry y="120" width="160" height="30" as="geometry"/>
                </mxCell>
                <mxCell id="230" value="AvatarService" style="swimlane;fontStyle=0;childLayout=stackLayout;horizontal=1;startSize=30;horizontalStack=0;resizeParent=1;resizeParentMax=0;resizeLast=0;collapsible=1;marginBottom=0;" parent="1" vertex="1">
                    <mxGeometry x="1495" y="690" width="550" height="300" as="geometry"/>
                </mxCell>
                <mxCell id="231" value="+ saveItem(DbItem) : DbItem" style="text;strokeColor=none;fillColor=none;align=left;verticalAlign=middle;spacingLeft=4;spacingRight=4;overflow=hidden;points=[[0,0.5],[1,0.5]];portConstraint=eastwest;rotatable=0;" parent="230" vertex="1">
                    <mxGeometry y="30" width="550" height="30" as="geometry"/>
                </mxCell>
                <mxCell id="404" value="+ getItem(String) : DbItem" style="text;strokeColor=none;fillColor=none;align=left;verticalAlign=middle;spacingLeft=4;spacingRight=4;overflow=hidden;points=[[0,0.5],[1,0.5]];portConstraint=eastwest;rotatable=0;" parent="230" vertex="1">
                    <mxGeometry y="60" width="550" height="30" as="geometry"/>
                </mxCell>
                <mxCell id="233" value="+ preprocessAndMakeHead(MultipartFile, String, InferenceApiResult, Sexuality) :  InferenceApiResult" style="text;strokeColor=none;fillColor=none;align=left;verticalAlign=middle;spacingLeft=4;spacingRight=4;overflow=hidden;points=[[0,0.5],[1,0.5]];portConstraint=eastwest;rotatable=0;" parent="230" vertex="1">
                    <mxGeometry y="90" width="550" height="30" as="geometry"/>
                </mxCell>
                <mxCell id="405" value="&amp;nbsp;+ makeFullAvatar(String, int, int) : CombineAvatarResult" style="text;html=1;strokeColor=none;fillColor=none;align=left;verticalAlign=middle;whiteSpace=wrap;rounded=0;" parent="230" vertex="1">
                    <mxGeometry y="120" width="550" height="30" as="geometry"/>
                </mxCell>
                <mxCell id="406" value="&amp;nbsp;+ getAvatar(String) : String" style="text;html=1;strokeColor=none;fillColor=none;align=left;verticalAlign=middle;whiteSpace=wrap;rounded=0;" parent="230" vertex="1">
                    <mxGeometry y="150" width="550" height="30" as="geometry"/>
                </mxCell>
                <mxCell id="407" value="&amp;nbsp;+ getToonify(String) : String" style="text;html=1;strokeColor=none;fillColor=none;align=left;verticalAlign=middle;whiteSpace=wrap;rounded=0;" parent="230" vertex="1">
                    <mxGeometry y="180" width="550" height="30" as="geometry"/>
                </mxCell>
                <mxCell id="408" value="&amp;nbsp;+ getBodyInfos(Sexuality) : List&amp;lt;BodyInfoItem&amp;gt;" style="text;html=1;strokeColor=none;fillColor=none;align=left;verticalAlign=middle;whiteSpace=wrap;rounded=0;" parent="230" vertex="1">
                    <mxGeometry y="210" width="550" height="30" as="geometry"/>
                </mxCell>
                <mxCell id="409" value="&amp;nbsp;+ getHairInfos(Sexuality) : List&amp;lt;HairInfoItem&amp;gt;" style="text;html=1;strokeColor=none;fillColor=none;align=left;verticalAlign=middle;whiteSpace=wrap;rounded=0;" parent="230" vertex="1">
                    <mxGeometry y="240" width="550" height="30" as="geometry"/>
                </mxCell>
                <mxCell id="410" value="&amp;nbsp;+ getStyleIfno() : List&amp;lt;StyleCodeItem&amp;gt;" style="text;html=1;strokeColor=none;fillColor=none;align=left;verticalAlign=middle;whiteSpace=wrap;rounded=0;" parent="230" vertex="1">
                    <mxGeometry y="270" width="550" height="30" as="geometry"/>
                </mxCell>
                <mxCell id="241" value="Use" style="endArrow=open;endSize=12;dashed=1;html=1;entryX=0;entryY=0.5;entryDx=0;entryDy=0;edgeStyle=elbowEdgeStyle;exitX=0.999;exitY=0.365;exitDx=0;exitDy=0;exitPerimeter=0;" parent="1" source="233" target="95" edge="1">
                    <mxGeometry width="160" relative="1" as="geometry">
                        <mxPoint x="1940" y="906" as="sourcePoint"/>
                        <mxPoint x="1730" y="951" as="targetPoint"/>
                    </mxGeometry>
                </mxCell>
                <mxCell id="242" value="Use" style="endArrow=open;endSize=12;dashed=1;html=1;entryX=0.5;entryY=0;entryDx=0;entryDy=0;edgeStyle=elbowEdgeStyle;elbow=vertical;exitX=0.5;exitY=1;exitDx=0;exitDy=0;" parent="1" target="192" edge="1">
                    <mxGeometry x="-0.641" width="160" relative="1" as="geometry">
                        <mxPoint x="1770" y="1020" as="sourcePoint"/>
                        <mxPoint x="1670" y="1190" as="targetPoint"/>
                        <mxPoint as="offset"/>
                        <Array as="points">
                            <mxPoint x="1660" y="1270"/>
                        </Array>
                    </mxGeometry>
                </mxCell>
                <mxCell id="243" value="Use" style="endArrow=open;endSize=12;dashed=1;html=1;entryX=0;entryY=0.5;entryDx=0;entryDy=0;" parent="1" target="233" edge="1">
                    <mxGeometry width="160" relative="1" as="geometry">
                        <mxPoint x="1380" y="805" as="sourcePoint"/>
                        <mxPoint x="1610" y="965" as="targetPoint"/>
                    </mxGeometry>
                </mxCell>
                <mxCell id="244" value="CombineAvatarApiResult" style="swimlane;fontStyle=1;align=center;verticalAlign=top;childLayout=stackLayout;horizontal=1;startSize=26;horizontalStack=0;resizeParent=1;resizeParentMax=0;resizeLast=0;collapsible=1;marginBottom=0;" parent="1" vertex="1">
                    <mxGeometry x="647" y="580" width="160" height="86" as="geometry"/>
                </mxCell>
                <mxCell id="245" value="- result : int        " style="text;strokeColor=none;fillColor=none;align=left;verticalAlign=top;spacingLeft=4;spacingRight=4;overflow=hidden;rotatable=0;points=[[0,0.5],[1,0.5]];portConstraint=eastwest;" parent="244" vertex="1">
                    <mxGeometry y="26" width="160" height="26" as="geometry"/>
                </mxCell>
                <mxCell id="246" value="" style="line;strokeWidth=1;fillColor=none;align=left;verticalAlign=middle;spacingTop=-1;spacingLeft=3;spacingRight=3;rotatable=0;labelPosition=right;points=[];portConstraint=eastwest;" parent="244" vertex="1">
                    <mxGeometry y="52" width="160" height="8" as="geometry"/>
                </mxCell>
                <mxCell id="247" value="- objectUrl : String" style="text;strokeColor=none;fillColor=none;align=left;verticalAlign=top;spacingLeft=4;spacingRight=4;overflow=hidden;rotatable=0;points=[[0,0.5],[1,0.5]];portConstraint=eastwest;" parent="244" vertex="1">
                    <mxGeometry y="60" width="160" height="26" as="geometry"/>
                </mxCell>
                <mxCell id="248" value="GetAvatarApiResult" style="swimlane;fontStyle=1;align=center;verticalAlign=top;childLayout=stackLayout;horizontal=1;startSize=26;horizontalStack=0;resizeParent=1;resizeParentMax=0;resizeLast=0;collapsible=1;marginBottom=0;" parent="1" vertex="1">
                    <mxGeometry x="647" y="680" width="160" height="86" as="geometry"/>
                </mxCell>
                <mxCell id="299" value="- result : int        " style="text;strokeColor=none;fillColor=none;align=left;verticalAlign=top;spacingLeft=4;spacingRight=4;overflow=hidden;rotatable=0;points=[[0,0.5],[1,0.5]];portConstraint=eastwest;" parent="248" vertex="1">
                    <mxGeometry y="26" width="160" height="26" as="geometry"/>
                </mxCell>
                <mxCell id="250" value="" style="line;strokeWidth=1;fillColor=none;align=left;verticalAlign=middle;spacingTop=-1;spacingLeft=3;spacingRight=3;rotatable=0;labelPosition=right;points=[];portConstraint=eastwest;" parent="248" vertex="1">
                    <mxGeometry y="52" width="160" height="8" as="geometry"/>
                </mxCell>
                <mxCell id="300" value="- objectUrl : String" style="text;strokeColor=none;fillColor=none;align=left;verticalAlign=top;spacingLeft=4;spacingRight=4;overflow=hidden;rotatable=0;points=[[0,0.5],[1,0.5]];portConstraint=eastwest;" parent="248" vertex="1">
                    <mxGeometry y="60" width="160" height="26" as="geometry"/>
                </mxCell>
                <mxCell id="252" value="GetToonifyApiResult" style="swimlane;fontStyle=1;align=center;verticalAlign=top;childLayout=stackLayout;horizontal=1;startSize=26;horizontalStack=0;resizeParent=1;resizeParentMax=0;resizeLast=0;collapsible=1;marginBottom=0;" parent="1" vertex="1">
                    <mxGeometry x="647" y="780" width="160" height="86" as="geometry"/>
                </mxCell>
                <mxCell id="301" value="- result : int        " style="text;strokeColor=none;fillColor=none;align=left;verticalAlign=top;spacingLeft=4;spacingRight=4;overflow=hidden;rotatable=0;points=[[0,0.5],[1,0.5]];portConstraint=eastwest;" parent="252" vertex="1">
                    <mxGeometry y="26" width="160" height="26" as="geometry"/>
                </mxCell>
                <mxCell id="254" value="" style="line;strokeWidth=1;fillColor=none;align=left;verticalAlign=middle;spacingTop=-1;spacingLeft=3;spacingRight=3;rotatable=0;labelPosition=right;points=[];portConstraint=eastwest;" parent="252" vertex="1">
                    <mxGeometry y="52" width="160" height="8" as="geometry"/>
                </mxCell>
                <mxCell id="302" value="- imageUrl : String" style="text;strokeColor=none;fillColor=none;align=left;verticalAlign=top;spacingLeft=4;spacingRight=4;overflow=hidden;rotatable=0;points=[[0,0.5],[1,0.5]];portConstraint=eastwest;" parent="252" vertex="1">
                    <mxGeometry y="60" width="160" height="26" as="geometry"/>
                </mxCell>
                <mxCell id="256" value="Use" style="endArrow=open;endSize=12;dashed=1;html=1;exitX=0;exitY=0.5;exitDx=0;exitDy=0;entryX=1;entryY=0.5;entryDx=0;entryDy=0;edgeStyle=elbowEdgeStyle;" parent="1" source="183" target="219" edge="1">
                    <mxGeometry width="160" relative="1" as="geometry">
                        <mxPoint x="930" y="1094.5" as="sourcePoint"/>
                        <mxPoint x="1090" y="1094.5" as="targetPoint"/>
                    </mxGeometry>
                </mxCell>
                <mxCell id="257" value="Use" style="endArrow=open;endSize=12;dashed=1;html=1;exitX=0;exitY=0.5;exitDx=0;exitDy=0;entryX=1;entryY=0.5;entryDx=0;entryDy=0;edgeStyle=elbowEdgeStyle;" parent="1" source="181" target="244" edge="1">
                    <mxGeometry width="160" relative="1" as="geometry">
                        <mxPoint x="940" y="1104.5" as="sourcePoint"/>
                        <mxPoint x="1100" y="1104.5" as="targetPoint"/>
                    </mxGeometry>
                </mxCell>
                <mxCell id="259" value="Use" style="endArrow=open;endSize=12;dashed=1;html=1;exitX=0;exitY=0.5;exitDx=0;exitDy=0;entryX=1;entryY=0.5;entryDx=0;entryDy=0;edgeStyle=elbowEdgeStyle;" parent="1" source="228" target="301" edge="1">
                    <mxGeometry width="160" relative="1" as="geometry">
                        <mxPoint x="960" y="1124.5" as="sourcePoint"/>
                        <mxPoint x="930" y="974.9999999999998" as="targetPoint"/>
                    </mxGeometry>
                </mxCell>
                <mxCell id="260" value="" style="endArrow=open;endSize=12;dashed=1;html=1;entryX=0.5;entryY=0;entryDx=0;entryDy=0;edgeStyle=elbowEdgeStyle;elbow=vertical;exitX=0.5;exitY=1;exitDx=0;exitDy=0;" parent="1" target="166" edge="1">
                    <mxGeometry width="160" relative="1" as="geometry">
                        <mxPoint x="1770" y="1020" as="sourcePoint"/>
                        <mxPoint x="1600" y="1180" as="targetPoint"/>
                        <Array as="points">
                            <mxPoint x="1350" y="1270"/>
                        </Array>
                    </mxGeometry>
                </mxCell>
                <mxCell id="261" value="" style="endArrow=open;endSize=12;dashed=1;html=1;elbow=vertical;entryX=0.5;entryY=0;entryDx=0;entryDy=0;edgeStyle=elbowEdgeStyle;exitX=0.5;exitY=1;exitDx=0;exitDy=0;" parent="1" source="410" target="118" edge="1">
                    <mxGeometry x="-0.6316" y="30" width="160" relative="1" as="geometry">
                        <mxPoint x="1770" y="1020" as="sourcePoint"/>
                        <mxPoint x="1600" y="1280" as="targetPoint"/>
                        <mxPoint as="offset"/>
                        <Array as="points">
                            <mxPoint x="1940" y="1270"/>
                        </Array>
                    </mxGeometry>
                </mxCell>
                <mxCell id="278" value="PreprocessDir" style="swimlane;fontStyle=0;childLayout=stackLayout;horizontal=1;startSize=26;fillColor=none;horizontalStack=0;resizeParent=1;resizeParentMax=0;resizeLast=0;collapsible=1;marginBottom=0;" parent="1" vertex="1">
                    <mxGeometry x="1333" y="1640" width="195" height="130" as="geometry"/>
                </mxCell>
                <mxCell id="279" value="- PYTHON_DIR : String" style="text;strokeColor=none;fillColor=none;align=left;verticalAlign=top;spacingLeft=4;spacingRight=4;overflow=hidden;rotatable=0;points=[[0,0.5],[1,0.5]];portConstraint=eastwest;" parent="278" vertex="1">
                    <mxGeometry y="26" width="195" height="26" as="geometry"/>
                </mxCell>
                <mxCell id="280" value="- PREPROCESSER_DIR : String" style="text;strokeColor=none;fillColor=none;align=left;verticalAlign=top;spacingLeft=4;spacingRight=4;overflow=hidden;rotatable=0;points=[[0,0.5],[1,0.5]];portConstraint=eastwest;" parent="278" vertex="1">
                    <mxGeometry y="52" width="195" height="26" as="geometry"/>
                </mxCell>
                <mxCell id="281" value="- BEFORE_DIR : String&#10;" style="text;strokeColor=none;fillColor=none;align=left;verticalAlign=top;spacingLeft=4;spacingRight=4;overflow=hidden;rotatable=0;points=[[0,0.5],[1,0.5]];portConstraint=eastwest;" parent="278" vertex="1">
                    <mxGeometry y="78" width="195" height="26" as="geometry"/>
                </mxCell>
                <mxCell id="282" value="- AFTER_DIR : String" style="text;strokeColor=none;fillColor=none;align=left;verticalAlign=top;spacingLeft=4;spacingRight=4;overflow=hidden;rotatable=0;points=[[0,0.5],[1,0.5]];portConstraint=eastwest;" parent="278" vertex="1">
                    <mxGeometry y="104" width="195" height="26" as="geometry"/>
                </mxCell>
                <mxCell id="283" value="Use" style="endArrow=open;endSize=12;dashed=1;html=1;entryX=0.5;entryY=0;entryDx=0;entryDy=0;exitX=0.524;exitY=1.012;exitDx=0;exitDy=0;exitPerimeter=0;" parent="1" source="205" target="278" edge="1">
                    <mxGeometry width="160" relative="1" as="geometry">
                        <mxPoint x="1430.5" y="1580" as="sourcePoint"/>
                        <mxPoint x="1470.5" y="1650" as="targetPoint"/>
                    </mxGeometry>
                </mxCell>
                <mxCell id="284" value="WebClientInferenceServer" style="swimlane;fontStyle=0;childLayout=stackLayout;horizontal=1;startSize=30;horizontalStack=0;resizeParent=1;resizeParentMax=0;resizeLast=0;collapsible=1;marginBottom=0;shadow=1;strokeColor=default;" parent="1" vertex="1">
                    <mxGeometry x="960" y="1540" width="310" height="86" as="geometry"/>
                </mxCell>
                <mxCell id="285" value="+ inferenceHead(String, String) : InferenceResult " style="text;strokeColor=none;fillColor=none;align=left;verticalAlign=middle;spacingLeft=4;spacingRight=4;overflow=hidden;points=[[0,0.5],[1,0.5]];portConstraint=eastwest;rotatable=0;shadow=1;" parent="284" vertex="1">
                    <mxGeometry y="30" width="310" height="30" as="geometry"/>
                </mxCell>
                <mxCell id="287" value="+ combineAvatar(String, int, int) : CombineAvatarResult " style="text;strokeColor=none;fillColor=none;align=left;verticalAlign=top;spacingLeft=4;spacingRight=4;overflow=hidden;rotatable=0;points=[[0,0.5],[1,0.5]];portConstraint=eastwest;" parent="284" vertex="1">
                    <mxGeometry y="60" width="310" height="26" as="geometry"/>
                </mxCell>
                <mxCell id="286" style="edgeStyle=elbowEdgeStyle;elbow=vertical;html=1;" parent="1" source="284" target="288" edge="1">
                    <mxGeometry relative="1" as="geometry">
                        <mxPoint x="755" y="1550.0000000000002" as="sourcePoint"/>
                        <mxPoint x="970" y="1485" as="targetPoint"/>
                    </mxGeometry>
                </mxCell>
                <mxCell id="290" value="InferenceResult" style="swimlane;fontStyle=1;align=center;verticalAlign=top;childLayout=stackLayout;horizontal=1;startSize=26;horizontalStack=0;resizeParent=1;resizeParentMax=0;resizeLast=0;collapsible=1;marginBottom=0;" parent="1" vertex="1">
                    <mxGeometry x="430" y="1260" width="160" height="120" as="geometry"/>
                </mxCell>
                <mxCell id="291" value="+ result : int" style="text;strokeColor=none;fillColor=none;align=left;verticalAlign=top;spacingLeft=4;spacingRight=4;overflow=hidden;rotatable=0;points=[[0,0.5],[1,0.5]];portConstraint=eastwest;" parent="290" vertex="1">
                    <mxGeometry y="26" width="160" height="26" as="geometry"/>
                </mxCell>
                <mxCell id="292" value="" style="line;strokeWidth=1;fillColor=none;align=left;verticalAlign=middle;spacingTop=-1;spacingLeft=3;spacingRight=3;rotatable=0;labelPosition=right;points=[];portConstraint=eastwest;" parent="290" vertex="1">
                    <mxGeometry y="52" width="160" height="8" as="geometry"/>
                </mxCell>
                <mxCell id="293" value="+ toonifyUrl : String" style="text;strokeColor=none;fillColor=none;align=left;verticalAlign=top;spacingLeft=4;spacingRight=4;overflow=hidden;rotatable=0;points=[[0,0.5],[1,0.5]];portConstraint=eastwest;" parent="290" vertex="1">
                    <mxGeometry y="60" width="160" height="26" as="geometry"/>
                </mxCell>
                <mxCell id="344" value="" style="line;strokeWidth=1;fillColor=none;align=left;verticalAlign=middle;spacingTop=-1;spacingLeft=3;spacingRight=3;rotatable=0;labelPosition=right;points=[];portConstraint=eastwest;" parent="290" vertex="1">
                    <mxGeometry y="86" width="160" height="8" as="geometry"/>
                </mxCell>
                <mxCell id="345" value="+ headUrl : String" style="text;strokeColor=none;fillColor=none;align=left;verticalAlign=top;spacingLeft=4;spacingRight=4;overflow=hidden;rotatable=0;points=[[0,0.5],[1,0.5]];portConstraint=eastwest;" parent="290" vertex="1">
                    <mxGeometry y="94" width="160" height="26" as="geometry"/>
                </mxCell>
                <mxCell id="303" value="Sexuality" style="swimlane;fontStyle=0;childLayout=stackLayout;horizontal=1;startSize=30;horizontalStack=0;resizeParent=1;resizeParentMax=0;resizeLast=0;collapsible=1;marginBottom=0;" parent="1" vertex="1">
                    <mxGeometry x="1660" y="153" width="140" height="90" as="geometry"/>
                </mxCell>
                <mxCell id="305" value="&amp;nbsp;- MALE&amp;nbsp; = &quot;male&quot;&lt;br&gt;&lt;div&gt;&lt;/div&gt;" style="text;html=1;strokeColor=none;fillColor=none;align=left;verticalAlign=middle;whiteSpace=wrap;rounded=0;" parent="303" vertex="1">
                    <mxGeometry y="30" width="140" height="30" as="geometry"/>
                </mxCell>
                <mxCell id="306" value="&amp;nbsp;- FEMALE = &quot;female&quot;" style="text;html=1;strokeColor=none;fillColor=none;align=left;verticalAlign=middle;whiteSpace=wrap;rounded=0;" parent="303" vertex="1">
                    <mxGeometry y="60" width="140" height="30" as="geometry"/>
                </mxCell>
                <mxCell id="312" value="GpuWorkingItem" style="swimlane;fontStyle=0;childLayout=stackLayout;horizontal=1;startSize=30;horizontalStack=0;resizeParent=1;resizeParentMax=0;resizeLast=0;collapsible=1;marginBottom=0;" parent="1" vertex="1">
                    <mxGeometry x="1180" y="153" width="220" height="90" as="geometry"/>
                </mxCell>
                <mxCell id="313" value="- num : Integert" style="text;strokeColor=none;fillColor=none;align=left;verticalAlign=middle;spacingLeft=4;spacingRight=4;overflow=hidden;points=[[0,0.5],[1,0.5]];portConstraint=eastwest;rotatable=0;" parent="312" vertex="1">
                    <mxGeometry y="30" width="220" height="30" as="geometry"/>
                </mxCell>
                <mxCell id="314" value="- status : String" style="text;strokeColor=none;fillColor=none;align=left;verticalAlign=middle;spacingLeft=4;spacingRight=4;overflow=hidden;points=[[0,0.5],[1,0.5]];portConstraint=eastwest;rotatable=0;" parent="312" vertex="1">
                    <mxGeometry y="60" width="220" height="30" as="geometry"/>
                </mxCell>
                <mxCell id="325" value="Use" style="endArrow=open;endSize=12;dashed=1;html=1;exitX=0;exitY=0.5;exitDx=0;exitDy=0;entryX=1;entryY=0.5;entryDx=0;entryDy=0;edgeStyle=elbowEdgeStyle;" parent="1" source="224" target="299" edge="1">
                    <mxGeometry width="160" relative="1" as="geometry">
                        <mxPoint x="1000" y="842" as="sourcePoint"/>
                        <mxPoint x="840" y="680" as="targetPoint"/>
                    </mxGeometry>
                </mxCell>
                <mxCell id="326" value="WorkqueueOrder" style="swimlane;fontStyle=0;childLayout=stackLayout;horizontal=1;startSize=30;horizontalStack=0;resizeParent=1;resizeParentMax=0;resizeLast=0;collapsible=1;marginBottom=0;" parent="1" vertex="1">
                    <mxGeometry x="1180" y="273" width="220" height="120" as="geometry"/>
                </mxCell>
                <mxCell id="327" value="- id : String" style="text;strokeColor=none;fillColor=none;align=left;verticalAlign=middle;spacingLeft=4;spacingRight=4;overflow=hidden;points=[[0,0.5],[1,0.5]];portConstraint=eastwest;rotatable=0;" parent="326" vertex="1">
                    <mxGeometry y="30" width="220" height="30" as="geometry"/>
                </mxCell>
                <mxCell id="328" value="- photoUrl : String" style="text;strokeColor=none;fillColor=none;align=left;verticalAlign=middle;spacingLeft=4;spacingRight=4;overflow=hidden;points=[[0,0.5],[1,0.5]];portConstraint=eastwest;rotatable=0;" parent="326" vertex="1">
                    <mxGeometry y="60" width="220" height="30" as="geometry"/>
                </mxCell>
                <mxCell id="329" value="- styleCode : String" style="text;strokeColor=none;fillColor=none;align=left;verticalAlign=middle;spacingLeft=4;spacingRight=4;overflow=hidden;points=[[0,0.5],[1,0.5]];portConstraint=eastwest;rotatable=0;" parent="326" vertex="1">
                    <mxGeometry y="90" width="220" height="30" as="geometry"/>
                </mxCell>
                <mxCell id="330" value="BodyInfoItem" style="swimlane;fontStyle=1;align=center;verticalAlign=top;childLayout=stackLayout;horizontal=1;startSize=26;horizontalStack=0;resizeParent=1;resizeParentMax=0;resizeLast=0;collapsible=1;marginBottom=0;" parent="1" vertex="1">
                    <mxGeometry x="647" y="880" width="160" height="120" as="geometry"/>
                </mxCell>
                <mxCell id="331" value="- num : int" style="text;strokeColor=none;fillColor=none;align=left;verticalAlign=top;spacingLeft=4;spacingRight=4;overflow=hidden;rotatable=0;points=[[0,0.5],[1,0.5]];portConstraint=eastwest;" parent="330" vertex="1">
                    <mxGeometry y="26" width="160" height="26" as="geometry"/>
                </mxCell>
                <mxCell id="332" value="" style="line;strokeWidth=1;fillColor=none;align=left;verticalAlign=middle;spacingTop=-1;spacingLeft=3;spacingRight=3;rotatable=0;labelPosition=right;points=[];portConstraint=eastwest;" parent="330" vertex="1">
                    <mxGeometry y="52" width="160" height="8" as="geometry"/>
                </mxCell>
                <mxCell id="333" value="- imgUrl : String" style="text;strokeColor=none;fillColor=none;align=left;verticalAlign=top;spacingLeft=4;spacingRight=4;overflow=hidden;rotatable=0;points=[[0,0.5],[1,0.5]];portConstraint=eastwest;" parent="330" vertex="1">
                    <mxGeometry y="60" width="160" height="26" as="geometry"/>
                </mxCell>
                <mxCell id="340" value="" style="line;strokeWidth=1;fillColor=none;align=left;verticalAlign=middle;spacingTop=-1;spacingLeft=3;spacingRight=3;rotatable=0;labelPosition=right;points=[];portConstraint=eastwest;" parent="330" vertex="1">
                    <mxGeometry y="86" width="160" height="8" as="geometry"/>
                </mxCell>
                <mxCell id="334" value="- fbxUrl : String" style="text;strokeColor=none;fillColor=none;align=left;verticalAlign=top;spacingLeft=4;spacingRight=4;overflow=hidden;rotatable=0;points=[[0,0.5],[1,0.5]];portConstraint=eastwest;" parent="330" vertex="1">
                    <mxGeometry y="94" width="160" height="26" as="geometry"/>
                </mxCell>
                <mxCell id="335" value="HairInfoItem" style="swimlane;fontStyle=1;align=center;verticalAlign=top;childLayout=stackLayout;horizontal=1;startSize=26;horizontalStack=0;resizeParent=1;resizeParentMax=0;resizeLast=0;collapsible=1;marginBottom=0;" parent="1" vertex="1">
                    <mxGeometry x="647" y="1010" width="160" height="120" as="geometry"/>
                </mxCell>
                <mxCell id="336" value="- num : int" style="text;strokeColor=none;fillColor=none;align=left;verticalAlign=top;spacingLeft=4;spacingRight=4;overflow=hidden;rotatable=0;points=[[0,0.5],[1,0.5]];portConstraint=eastwest;" parent="335" vertex="1">
                    <mxGeometry y="26" width="160" height="26" as="geometry"/>
                </mxCell>
                <mxCell id="337" value="" style="line;strokeWidth=1;fillColor=none;align=left;verticalAlign=middle;spacingTop=-1;spacingLeft=3;spacingRight=3;rotatable=0;labelPosition=right;points=[];portConstraint=eastwest;" parent="335" vertex="1">
                    <mxGeometry y="52" width="160" height="8" as="geometry"/>
                </mxCell>
                <mxCell id="338" value="- imgUrl : String" style="text;strokeColor=none;fillColor=none;align=left;verticalAlign=top;spacingLeft=4;spacingRight=4;overflow=hidden;rotatable=0;points=[[0,0.5],[1,0.5]];portConstraint=eastwest;" parent="335" vertex="1">
                    <mxGeometry y="60" width="160" height="26" as="geometry"/>
                </mxCell>
                <mxCell id="341" value="" style="line;strokeWidth=1;fillColor=none;align=left;verticalAlign=middle;spacingTop=-1;spacingLeft=3;spacingRight=3;rotatable=0;labelPosition=right;points=[];portConstraint=eastwest;" parent="335" vertex="1">
                    <mxGeometry y="86" width="160" height="8" as="geometry"/>
                </mxCell>
                <mxCell id="339" value="- fbxUrl : String" style="text;strokeColor=none;fillColor=none;align=left;verticalAlign=top;spacingLeft=4;spacingRight=4;overflow=hidden;rotatable=0;points=[[0,0.5],[1,0.5]];portConstraint=eastwest;" parent="335" vertex="1">
                    <mxGeometry y="94" width="160" height="26" as="geometry"/>
                </mxCell>
                <mxCell id="342" value="Use" style="endArrow=open;endSize=12;dashed=1;html=1;exitX=0;exitY=0.5;exitDx=0;exitDy=0;entryX=1;entryY=0.5;entryDx=0;entryDy=0;edgeStyle=elbowEdgeStyle;" parent="1" source="294" target="333" edge="1">
                    <mxGeometry width="160" relative="1" as="geometry">
                        <mxPoint x="1020" y="875" as="sourcePoint"/>
                        <mxPoint x="860" y="829" as="targetPoint"/>
                    </mxGeometry>
                </mxCell>
                <mxCell id="343" value="Use" style="endArrow=open;endSize=12;dashed=1;html=1;exitX=0;exitY=0.5;exitDx=0;exitDy=0;entryX=1;entryY=0.5;entryDx=0;entryDy=0;edgeStyle=elbowEdgeStyle;" parent="1" source="295" target="338" edge="1">
                    <mxGeometry width="160" relative="1" as="geometry">
                        <mxPoint x="1010" y="916" as="sourcePoint"/>
                        <mxPoint x="850" y="870" as="targetPoint"/>
                    </mxGeometry>
                </mxCell>
                <mxCell id="346" value="CombineAvatarResult" style="swimlane;fontStyle=1;align=center;verticalAlign=top;childLayout=stackLayout;horizontal=1;startSize=26;horizontalStack=0;resizeParent=1;resizeParentMax=0;resizeLast=0;collapsible=1;marginBottom=0;" parent="1" vertex="1">
                    <mxGeometry x="430" y="1400" width="160" height="120" as="geometry"/>
                </mxCell>
                <mxCell id="347" value="+ result : int" style="text;strokeColor=none;fillColor=none;align=left;verticalAlign=top;spacingLeft=4;spacingRight=4;overflow=hidden;rotatable=0;points=[[0,0.5],[1,0.5]];portConstraint=eastwest;" parent="346" vertex="1">
                    <mxGeometry y="26" width="160" height="26" as="geometry"/>
                </mxCell>
                <mxCell id="348" value="" style="line;strokeWidth=1;fillColor=none;align=left;verticalAlign=middle;spacingTop=-1;spacingLeft=3;spacingRight=3;rotatable=0;labelPosition=right;points=[];portConstraint=eastwest;" parent="346" vertex="1">
                    <mxGeometry y="52" width="160" height="8" as="geometry"/>
                </mxCell>
                <mxCell id="349" value="+ toonifyUrl : String" style="text;strokeColor=none;fillColor=none;align=left;verticalAlign=top;spacingLeft=4;spacingRight=4;overflow=hidden;rotatable=0;points=[[0,0.5],[1,0.5]];portConstraint=eastwest;" parent="346" vertex="1">
                    <mxGeometry y="60" width="160" height="26" as="geometry"/>
                </mxCell>
                <mxCell id="350" value="" style="line;strokeWidth=1;fillColor=none;align=left;verticalAlign=middle;spacingTop=-1;spacingLeft=3;spacingRight=3;rotatable=0;labelPosition=right;points=[];portConstraint=eastwest;" parent="346" vertex="1">
                    <mxGeometry y="86" width="160" height="8" as="geometry"/>
                </mxCell>
                <mxCell id="351" value="+ headUrl : String" style="text;strokeColor=none;fillColor=none;align=left;verticalAlign=top;spacingLeft=4;spacingRight=4;overflow=hidden;rotatable=0;points=[[0,0.5],[1,0.5]];portConstraint=eastwest;" parent="346" vertex="1">
                    <mxGeometry y="94" width="160" height="26" as="geometry"/>
                </mxCell>
                <mxCell id="352" value="Use" style="endArrow=open;endSize=12;dashed=1;html=1;exitX=0;exitY=0.5;exitDx=0;exitDy=0;edgeStyle=elbowEdgeStyle;" parent="1" source="167" target="293" edge="1">
                    <mxGeometry width="160" relative="1" as="geometry">
                        <mxPoint x="807" y="1172" as="sourcePoint"/>
                        <mxPoint x="604" y="1340" as="targetPoint"/>
                    </mxGeometry>
                </mxCell>
                <mxCell id="354" value="Use" style="endArrow=open;endSize=12;dashed=1;html=1;exitX=0;exitY=0.5;exitDx=0;exitDy=0;edgeStyle=elbowEdgeStyle;entryX=1;entryY=0.5;entryDx=0;entryDy=0;" parent="1" source="288" target="349" edge="1">
                    <mxGeometry width="160" relative="1" as="geometry">
                        <mxPoint x="770" y="1430" as="sourcePoint"/>
                        <mxPoint x="600" y="1343" as="targetPoint"/>
                    </mxGeometry>
                </mxCell>
                <mxCell id="355" style="edgeStyle=elbowEdgeStyle;elbow=vertical;html=1;entryX=0.499;entryY=1;entryDx=0;entryDy=0;entryPerimeter=0;" parent="1" target="193" edge="1">
                    <mxGeometry relative="1" as="geometry">
                        <mxPoint x="1680" y="1520" as="sourcePoint"/>
                        <mxPoint x="1583" y="1470" as="targetPoint"/>
                    </mxGeometry>
                </mxCell>
                <mxCell id="356" value="WebClientPreprocesser" style="swimlane;fontStyle=0;childLayout=stackLayout;horizontal=1;startSize=30;horizontalStack=0;resizeParent=1;resizeParentMax=0;resizeLast=0;collapsible=1;marginBottom=0;shadow=1;strokeColor=default;" parent="1" vertex="1">
                    <mxGeometry x="1570" y="1520" width="219.5" height="60" as="geometry"/>
                </mxCell>
                <mxCell id="357" value="+ process(String) : PreprocessResult" style="text;strokeColor=none;fillColor=none;align=left;verticalAlign=middle;spacingLeft=4;spacingRight=4;overflow=hidden;points=[[0,0.5],[1,0.5]];portConstraint=eastwest;rotatable=0;shadow=1;" parent="356" vertex="1">
                    <mxGeometry y="30" width="219.5" height="30" as="geometry"/>
                </mxCell>
                <mxCell id="363" value="PreprocessResult" style="swimlane;fontStyle=0;childLayout=stackLayout;horizontal=1;startSize=26;fillColor=none;horizontalStack=0;resizeParent=1;resizeParentMax=0;resizeLast=0;collapsible=1;marginBottom=0;" parent="1" vertex="1">
                    <mxGeometry x="1740" y="1400" width="195" height="78" as="geometry"/>
                </mxCell>
                <mxCell id="364" value="- result : int" style="text;strokeColor=none;fillColor=none;align=left;verticalAlign=top;spacingLeft=4;spacingRight=4;overflow=hidden;rotatable=0;points=[[0,0.5],[1,0.5]];portConstraint=eastwest;" parent="363" vertex="1">
                    <mxGeometry y="26" width="195" height="26" as="geometry"/>
                </mxCell>
                <mxCell id="365" value="- url : String" style="text;strokeColor=none;fillColor=none;align=left;verticalAlign=top;spacingLeft=4;spacingRight=4;overflow=hidden;rotatable=0;points=[[0,0.5],[1,0.5]];portConstraint=eastwest;" parent="363" vertex="1">
                    <mxGeometry y="52" width="195" height="26" as="geometry"/>
                </mxCell>
                <mxCell id="369" value="Use" style="endArrow=open;endSize=12;dashed=1;html=1;exitX=1;exitY=0.5;exitDx=0;exitDy=0;edgeStyle=elbowEdgeStyle;entryX=0.006;entryY=0.163;entryDx=0;entryDy=0;entryPerimeter=0;" parent="1" source="193" target="363" edge="1">
                    <mxGeometry width="160" relative="1" as="geometry">
                        <mxPoint x="1750" y="1456" as="sourcePoint"/>
                        <mxPoint x="1580" y="1486" as="targetPoint"/>
                    </mxGeometry>
                </mxCell>
                <mxCell id="384" value="MySqlRepository" style="swimlane;fontStyle=0;childLayout=stackLayout;horizontal=1;startSize=30;horizontalStack=0;resizeParent=1;resizeParentMax=0;resizeLast=0;collapsible=1;marginBottom=0;" parent="1" vertex="1">
                    <mxGeometry x="2720" y="1350" width="350" height="570" as="geometry">
                        <mxRectangle x="220" y="160" width="90" height="30" as="alternateBounds"/>
                    </mxGeometry>
                </mxCell>
                <mxCell id="385" value="+ save(DbItem) : String" style="text;strokeColor=none;fillColor=none;align=left;verticalAlign=middle;spacingLeft=4;spacingRight=4;overflow=hidden;points=[[0,0.5],[1,0.5]];portConstraint=eastwest;rotatable=0;" parent="384" vertex="1">
                    <mxGeometry y="30" width="350" height="30" as="geometry"/>
                </mxCell>
                <mxCell id="386" value="+ findById(int) : DbItem" style="text;strokeColor=none;fillColor=none;align=left;verticalAlign=middle;spacingLeft=4;spacingRight=4;overflow=hidden;points=[[0,0.5],[1,0.5]];portConstraint=eastwest;rotatable=0;" parent="384" vertex="1">
                    <mxGeometry y="60" width="350" height="30" as="geometry"/>
                </mxCell>
                <mxCell id="387" value="+ findByStatus(String) : List&lt;DbItem&gt;" style="text;strokeColor=none;fillColor=none;align=left;verticalAlign=middle;spacingLeft=4;spacingRight=4;overflow=hidden;points=[[0,0.5],[1,0.5]];portConstraint=eastwest;rotatable=0;" parent="384" vertex="1">
                    <mxGeometry y="90" width="350" height="30" as="geometry"/>
                </mxCell>
                <mxCell id="388" value="+ updateStatus(String, StatusConst) : void" style="text;strokeColor=none;fillColor=none;align=left;verticalAlign=middle;spacingLeft=4;spacingRight=4;overflow=hidden;points=[[0,0.5],[1,0.5]];portConstraint=eastwest;rotatable=0;" parent="384" vertex="1">
                    <mxGeometry y="120" width="350" height="30" as="geometry"/>
                </mxCell>
                <mxCell id="389" value="+ updateToonify(String, String) : void" style="text;strokeColor=none;fillColor=none;align=left;verticalAlign=middle;spacingLeft=4;spacingRight=4;overflow=hidden;points=[[0,0.5],[1,0.5]];portConstraint=eastwest;rotatable=0;" parent="384" vertex="1">
                    <mxGeometry y="150" width="350" height="30" as="geometry"/>
                </mxCell>
                <mxCell id="390" value="+ updateObject(String, String) : void" style="text;strokeColor=none;fillColor=none;align=left;verticalAlign=middle;spacingLeft=4;spacingRight=4;overflow=hidden;points=[[0,0.5],[1,0.5]];portConstraint=eastwest;rotatable=0;" parent="384" vertex="1">
                    <mxGeometry y="180" width="350" height="30" as="geometry"/>
                </mxCell>
                <mxCell id="391" value="+ updateHead(String, String) : void" style="text;strokeColor=none;fillColor=none;align=left;verticalAlign=middle;spacingLeft=4;spacingRight=4;overflow=hidden;points=[[0,0.5],[1,0.5]];portConstraint=eastwest;rotatable=0;" parent="384" vertex="1">
                    <mxGeometry y="210" width="350" height="30" as="geometry"/>
                </mxCell>
                <mxCell id="392" value="+ createOrder(String, String, String) : void" style="text;strokeColor=none;fillColor=none;align=left;verticalAlign=middle;spacingLeft=4;spacingRight=4;overflow=hidden;points=[[0,0.5],[1,0.5]];portConstraint=eastwest;rotatable=0;" parent="384" vertex="1">
                    <mxGeometry y="240" width="350" height="30" as="geometry"/>
                </mxCell>
                <mxCell id="393" value="+ getNextOrder() : Optional&lt;WorkQueueOrder&gt;" style="text;strokeColor=none;fillColor=none;align=left;verticalAlign=middle;spacingLeft=4;spacingRight=4;overflow=hidden;points=[[0,0.5],[1,0.5]];portConstraint=eastwest;rotatable=0;" parent="384" vertex="1">
                    <mxGeometry y="270" width="350" height="30" as="geometry"/>
                </mxCell>
                <mxCell id="394" value="+ getOrderStatus(String) : String" style="text;strokeColor=none;fillColor=none;align=left;verticalAlign=middle;spacingLeft=4;spacingRight=4;overflow=hidden;points=[[0,0.5],[1,0.5]];portConstraint=eastwest;rotatable=0;" parent="384" vertex="1">
                    <mxGeometry y="300" width="350" height="30" as="geometry"/>
                </mxCell>
                <mxCell id="395" value="+ setOrderStatusWaiting(String) : void" style="text;strokeColor=none;fillColor=none;align=left;verticalAlign=middle;spacingLeft=4;spacingRight=4;overflow=hidden;points=[[0,0.5],[1,0.5]];portConstraint=eastwest;rotatable=0;" parent="384" vertex="1">
                    <mxGeometry y="330" width="350" height="30" as="geometry"/>
                </mxCell>
                <mxCell id="396" value="+ setOrderStatusLoading(String) : void" style="text;strokeColor=none;fillColor=none;align=left;verticalAlign=middle;spacingLeft=4;spacingRight=4;overflow=hidden;points=[[0,0.5],[1,0.5]];portConstraint=eastwest;rotatable=0;" parent="384" vertex="1">
                    <mxGeometry y="360" width="350" height="30" as="geometry"/>
                </mxCell>
                <mxCell id="397" value="+ setOrderStatusComplete(String) : void" style="text;strokeColor=none;fillColor=none;align=left;verticalAlign=middle;spacingLeft=4;spacingRight=4;overflow=hidden;points=[[0,0.5],[1,0.5]];portConstraint=eastwest;rotatable=0;" parent="384" vertex="1">
                    <mxGeometry y="390" width="350" height="30" as="geometry"/>
                </mxCell>
                <mxCell id="398" value="+ findAllBodys(Sexuality) : List&lt;BodyInfoItem&gt;" style="text;strokeColor=none;fillColor=none;align=left;verticalAlign=middle;spacingLeft=4;spacingRight=4;overflow=hidden;points=[[0,0.5],[1,0.5]];portConstraint=eastwest;rotatable=0;" parent="384" vertex="1">
                    <mxGeometry y="420" width="350" height="30" as="geometry"/>
                </mxCell>
                <mxCell id="399" value="+ findAllHairs(Sexuality) : List&lt;HairInfoItem&gt;" style="text;strokeColor=none;fillColor=none;align=left;verticalAlign=middle;spacingLeft=4;spacingRight=4;overflow=hidden;points=[[0,0.5],[1,0.5]];portConstraint=eastwest;rotatable=0;" parent="384" vertex="1">
                    <mxGeometry y="450" width="350" height="30" as="geometry"/>
                </mxCell>
                <mxCell id="400" value="+ findAllStyles(Sexuality) : List&lt;StyleCodeItem&gt;" style="text;strokeColor=none;fillColor=none;align=left;verticalAlign=middle;spacingLeft=4;spacingRight=4;overflow=hidden;points=[[0,0.5],[1,0.5]];portConstraint=eastwest;rotatable=0;" parent="384" vertex="1">
                    <mxGeometry y="480" width="350" height="30" as="geometry"/>
                </mxCell>
                <mxCell id="401" value="+ getGPUStatus() : List&lt;GpuWorkingStatus&gt;" style="text;strokeColor=none;fillColor=none;align=left;verticalAlign=middle;spacingLeft=4;spacingRight=4;overflow=hidden;points=[[0,0.5],[1,0.5]];portConstraint=eastwest;rotatable=0;" parent="384" vertex="1">
                    <mxGeometry y="510" width="350" height="30" as="geometry"/>
                </mxCell>
                <mxCell id="402" value="+ setGPUStatus(Integer, String) : void" style="text;strokeColor=none;fillColor=none;align=left;verticalAlign=middle;spacingLeft=4;spacingRight=4;overflow=hidden;points=[[0,0.5],[1,0.5]];portConstraint=eastwest;rotatable=0;" parent="384" vertex="1">
                    <mxGeometry y="540" width="350" height="30" as="geometry"/>
                </mxCell>
                <mxCell id="414" value="WorkQueueService" style="swimlane;fontStyle=0;childLayout=stackLayout;horizontal=1;startSize=30;horizontalStack=0;resizeParent=1;resizeParentMax=0;resizeLast=0;collapsible=1;marginBottom=0;" parent="1" vertex="1">
                    <mxGeometry x="3100" y="670" width="380" height="390" as="geometry"/>
                </mxCell>
                <mxCell id="415" value="+ init() : void" style="text;strokeColor=none;fillColor=none;align=left;verticalAlign=middle;spacingLeft=4;spacingRight=4;overflow=hidden;points=[[0,0.5],[1,0.5]];portConstraint=eastwest;rotatable=0;" parent="414" vertex="1">
                    <mxGeometry y="30" width="380" height="30" as="geometry"/>
                </mxCell>
                <mxCell id="428" value="+ getNextWorkqueueOrder() : Optional&lt;WorkQueueOrder&gt;" style="text;strokeColor=none;fillColor=none;align=left;verticalAlign=middle;spacingLeft=4;spacingRight=4;overflow=hidden;points=[[0,0.5],[1,0.5]];portConstraint=eastwest;rotatable=0;" parent="414" vertex="1">
                    <mxGeometry y="60" width="380" height="30" as="geometry"/>
                </mxCell>
                <mxCell id="429" value="+ getUserStatusInWorkqueue(String) : String" style="text;strokeColor=none;fillColor=none;align=left;verticalAlign=middle;spacingLeft=4;spacingRight=4;overflow=hidden;points=[[0,0.5],[1,0.5]];portConstraint=eastwest;rotatable=0;" parent="414" vertex="1">
                    <mxGeometry y="90" width="380" height="30" as="geometry"/>
                </mxCell>
                <mxCell id="430" value="+ setUserStatusInWorkqueueToWaiting(String) : void" style="text;strokeColor=none;fillColor=none;align=left;verticalAlign=middle;spacingLeft=4;spacingRight=4;overflow=hidden;points=[[0,0.5],[1,0.5]];portConstraint=eastwest;rotatable=0;" parent="414" vertex="1">
                    <mxGeometry y="120" width="380" height="30" as="geometry"/>
                </mxCell>
                <mxCell id="431" value="+ setUserStatusInWorkqueueToLoading(String) : void" style="text;strokeColor=none;fillColor=none;align=left;verticalAlign=middle;spacingLeft=4;spacingRight=4;overflow=hidden;points=[[0,0.5],[1,0.5]];portConstraint=eastwest;rotatable=0;" parent="414" vertex="1">
                    <mxGeometry y="150" width="380" height="30" as="geometry"/>
                </mxCell>
                <mxCell id="432" value="+ setUserStatusInWorkqueueToComplete(String) : void" style="text;strokeColor=none;fillColor=none;align=left;verticalAlign=middle;spacingLeft=4;spacingRight=4;overflow=hidden;points=[[0,0.5],[1,0.5]];portConstraint=eastwest;rotatable=0;" parent="414" vertex="1">
                    <mxGeometry y="180" width="380" height="30" as="geometry"/>
                </mxCell>
                <mxCell id="433" value="+ getGPUStatus() : List&lt;GpuWorkingStatus&gt;" style="text;strokeColor=none;fillColor=none;align=left;verticalAlign=middle;spacingLeft=4;spacingRight=4;overflow=hidden;points=[[0,0.5],[1,0.5]];portConstraint=eastwest;rotatable=0;" parent="414" vertex="1">
                    <mxGeometry y="210" width="380" height="30" as="geometry"/>
                </mxCell>
                <mxCell id="434" value="+ setGPUStatus(Integer, String) : void" style="text;strokeColor=none;fillColor=none;align=left;verticalAlign=middle;spacingLeft=4;spacingRight=4;overflow=hidden;points=[[0,0.5],[1,0.5]];portConstraint=eastwest;rotatable=0;" parent="414" vertex="1">
                    <mxGeometry y="240" width="380" height="30" as="geometry"/>
                </mxCell>
                <mxCell id="425" value="&amp;nbsp;+ beforeInferenceUpdate(String) : void" style="text;html=1;strokeColor=none;fillColor=none;align=left;verticalAlign=middle;whiteSpace=wrap;rounded=0;" parent="414" vertex="1">
                    <mxGeometry y="270" width="380" height="30" as="geometry"/>
                </mxCell>
                <mxCell id="426" value="&amp;nbsp;+ Initiation(String) : void" style="text;html=1;strokeColor=none;fillColor=none;align=left;verticalAlign=middle;whiteSpace=wrap;rounded=0;" parent="414" vertex="1">
                    <mxGeometry y="300" width="380" height="30" as="geometry"/>
                </mxCell>
                <mxCell id="427" value="&amp;nbsp;+ afterInferenceUpdate(String) : void" style="text;html=1;strokeColor=none;fillColor=none;align=left;verticalAlign=middle;whiteSpace=wrap;rounded=0;" parent="414" vertex="1">
                    <mxGeometry y="330" width="380" height="30" as="geometry"/>
                </mxCell>
                <mxCell id="435" value="&amp;nbsp;+ makeHead(String, String, String) : InferenceResult" style="text;html=1;strokeColor=none;fillColor=none;align=left;verticalAlign=middle;whiteSpace=wrap;rounded=0;" parent="414" vertex="1">
                    <mxGeometry y="360" width="380" height="30" as="geometry"/>
                </mxCell>
                <mxCell id="436" value="Use" style="endArrow=open;endSize=12;dashed=1;html=1;edgeStyle=elbowEdgeStyle;exitX=0;exitY=0.5;exitDx=0;exitDy=0;" parent="1" source="432" target="95" edge="1">
                    <mxGeometry width="160" relative="1" as="geometry">
                        <mxPoint x="2710" y="825.95" as="sourcePoint"/>
                        <mxPoint x="2985.55" y="690" as="targetPoint"/>
                    </mxGeometry>
                </mxCell>
                <mxCell id="437" value="WorkqueueScheduler" style="swimlane;fontStyle=0;childLayout=stackLayout;horizontal=1;startSize=26;fillColor=none;horizontalStack=0;resizeParent=1;resizeParentMax=0;resizeLast=0;collapsible=1;marginBottom=0;" parent="1" vertex="1">
                    <mxGeometry x="3610" y="780" width="280" height="78" as="geometry"/>
                </mxCell>
                <mxCell id="438" value="+ scheduling() : void" style="text;strokeColor=none;fillColor=none;align=left;verticalAlign=top;spacingLeft=4;spacingRight=4;overflow=hidden;rotatable=0;points=[[0,0.5],[1,0.5]];portConstraint=eastwest;" parent="437" vertex="1">
                    <mxGeometry y="26" width="280" height="26" as="geometry"/>
                </mxCell>
                <mxCell id="439" value="+ getWaitingGPU() : Optional&lt;GpuWorkingItem&gt;" style="text;strokeColor=none;fillColor=none;align=left;verticalAlign=top;spacingLeft=4;spacingRight=4;overflow=hidden;rotatable=0;points=[[0,0.5],[1,0.5]];portConstraint=eastwest;" parent="437" vertex="1">
                    <mxGeometry y="52" width="280" height="26" as="geometry"/>
                </mxCell>
                <mxCell id="441" value="Use" style="endArrow=open;endSize=12;dashed=1;html=1;edgeStyle=elbowEdgeStyle;exitX=-0.005;exitY=0.154;exitDx=0;exitDy=0;exitPerimeter=0;entryX=1;entryY=0.5;entryDx=0;entryDy=0;" parent="1" source="437" target="432" edge="1">
                    <mxGeometry width="160" relative="1" as="geometry">
                        <mxPoint x="3630.0000000000005" y="875" as="sourcePoint"/>
                        <mxPoint x="3200" y="665" as="targetPoint"/>
                    </mxGeometry>
                </mxCell>
                <mxCell id="toF073RlHNc5bugcGSka-441" value="StlyeCodeItem" style="swimlane;fontStyle=1;align=center;verticalAlign=top;childLayout=stackLayout;horizontal=1;startSize=26;horizontalStack=0;resizeParent=1;resizeParentMax=0;resizeLast=0;collapsible=1;marginBottom=0;" vertex="1" parent="1">
                    <mxGeometry x="647" y="1140" width="160" height="120" as="geometry"/>
                </mxCell>
                <mxCell id="toF073RlHNc5bugcGSka-442" value="- code : String" style="text;strokeColor=none;fillColor=none;align=left;verticalAlign=top;spacingLeft=4;spacingRight=4;overflow=hidden;rotatable=0;points=[[0,0.5],[1,0.5]];portConstraint=eastwest;" vertex="1" parent="toF073RlHNc5bugcGSka-441">
                    <mxGeometry y="26" width="160" height="26" as="geometry"/>
                </mxCell>
                <mxCell id="toF073RlHNc5bugcGSka-443" value="" style="line;strokeWidth=1;fillColor=none;align=left;verticalAlign=middle;spacingTop=-1;spacingLeft=3;spacingRight=3;rotatable=0;labelPosition=right;points=[];portConstraint=eastwest;" vertex="1" parent="toF073RlHNc5bugcGSka-441">
                    <mxGeometry y="52" width="160" height="8" as="geometry"/>
                </mxCell>
                <mxCell id="toF073RlHNc5bugcGSka-444" value="- imgUrl : String" style="text;strokeColor=none;fillColor=none;align=left;verticalAlign=top;spacingLeft=4;spacingRight=4;overflow=hidden;rotatable=0;points=[[0,0.5],[1,0.5]];portConstraint=eastwest;" vertex="1" parent="toF073RlHNc5bugcGSka-441">
                    <mxGeometry y="60" width="160" height="26" as="geometry"/>
                </mxCell>
                <mxCell id="toF073RlHNc5bugcGSka-445" value="" style="line;strokeWidth=1;fillColor=none;align=left;verticalAlign=middle;spacingTop=-1;spacingLeft=3;spacingRight=3;rotatable=0;labelPosition=right;points=[];portConstraint=eastwest;" vertex="1" parent="toF073RlHNc5bugcGSka-441">
                    <mxGeometry y="86" width="160" height="8" as="geometry"/>
                </mxCell>
                <mxCell id="toF073RlHNc5bugcGSka-446" value="- description : String" style="text;strokeColor=none;fillColor=none;align=left;verticalAlign=top;spacingLeft=4;spacingRight=4;overflow=hidden;rotatable=0;points=[[0,0.5],[1,0.5]];portConstraint=eastwest;" vertex="1" parent="toF073RlHNc5bugcGSka-441">
                    <mxGeometry y="94" width="160" height="26" as="geometry"/>
                </mxCell>
                <mxCell id="toF073RlHNc5bugcGSka-447" value="Use" style="endArrow=open;endSize=12;dashed=1;html=1;exitX=0;exitY=0.5;exitDx=0;exitDy=0;entryX=1;entryY=0.5;entryDx=0;entryDy=0;edgeStyle=elbowEdgeStyle;" edge="1" parent="1" source="297" target="toF073RlHNc5bugcGSka-444">
                    <mxGeometry width="160" relative="1" as="geometry">
                        <mxPoint x="1020" y="1060" as="sourcePoint"/>
                        <mxPoint x="817" y="1218" as="targetPoint"/>
                    </mxGeometry>
                </mxCell>
            </root>
        </mxGraphModel>
    </diagram>
    <diagram id="7gANXvxv0-CT-jiSSFd_" name="페이지-2">
        <mxGraphModel dx="762" dy="1137" grid="1" gridSize="10" guides="1" tooltips="1" connect="1" arrows="1" fold="1" page="1" pageScale="1" pageWidth="4681" pageHeight="3300" math="0" shadow="0">
            <root>
                <mxCell id="4F4TVd0Hu51OqxBF1fFu-0"/>
                <mxCell id="4F4TVd0Hu51OqxBF1fFu-1" parent="4F4TVd0Hu51OqxBF1fFu-0"/>
                <mxCell id="4F4TVd0Hu51OqxBF1fFu-3" value="POST /make-avatar" style="swimlane;fontStyle=0;childLayout=stackLayout;horizontal=1;startSize=26;fillColor=none;horizontalStack=0;resizeParent=1;resizeParentMax=0;resizeLast=0;collapsible=1;marginBottom=0;" vertex="1" parent="4F4TVd0Hu51OqxBF1fFu-1">
                    <mxGeometry x="240" y="200" width="220" height="110" as="geometry"/>
                </mxCell>
                <mxCell id="O9-JjZMZdbI-KJjb6Adc-0" value="" style="html=1;shadow=0;dashed=0;align=center;verticalAlign=middle;shape=mxgraph.arrows2.arrow;dy=0.6;dx=40;direction=north;notch=0;" vertex="1" parent="4F4TVd0Hu51OqxBF1fFu-1">
                    <mxGeometry x="280" y="270" width="20" height="70" as="geometry"/>
                </mxCell>
                <mxCell id="O9-JjZMZdbI-KJjb6Adc-1" value="" style="html=1;shadow=0;dashed=0;align=center;verticalAlign=middle;shape=mxgraph.arrows2.arrow;dy=0.6;dx=40;direction=north;notch=0;rotation=-180;" vertex="1" parent="4F4TVd0Hu51OqxBF1fFu-1">
                    <mxGeometry x="400" y="270" width="20" height="70" as="geometry"/>
                </mxCell>
                <mxCell id="O9-JjZMZdbI-KJjb6Adc-2" value="(input)" style="swimlane;fontStyle=1;align=center;verticalAlign=top;childLayout=stackLayout;horizontal=1;startSize=26;horizontalStack=0;resizeParent=1;resizeParentMax=0;resizeLast=0;collapsible=1;marginBottom=0;" vertex="1" parent="4F4TVd0Hu51OqxBF1fFu-1">
                    <mxGeometry x="160" y="340" width="160" height="120" as="geometry"/>
                </mxCell>
                <mxCell id="O9-JjZMZdbI-KJjb6Adc-3" value="- file: MultipartFile" style="text;strokeColor=none;fillColor=none;align=left;verticalAlign=top;spacingLeft=4;spacingRight=4;overflow=hidden;rotatable=0;points=[[0,0.5],[1,0.5]];portConstraint=eastwest;" vertex="1" parent="O9-JjZMZdbI-KJjb6Adc-2">
                    <mxGeometry y="26" width="160" height="26" as="geometry"/>
                </mxCell>
                <mxCell id="O9-JjZMZdbI-KJjb6Adc-4" value="" style="line;strokeWidth=1;fillColor=none;align=left;verticalAlign=middle;spacingTop=-1;spacingLeft=3;spacingRight=3;rotatable=0;labelPosition=right;points=[];portConstraint=eastwest;" vertex="1" parent="O9-JjZMZdbI-KJjb6Adc-2">
                    <mxGeometry y="52" width="160" height="8" as="geometry"/>
                </mxCell>
                <mxCell id="O9-JjZMZdbI-KJjb6Adc-5" value="- styleCode : String" style="text;strokeColor=none;fillColor=none;align=left;verticalAlign=top;spacingLeft=4;spacingRight=4;overflow=hidden;rotatable=0;points=[[0,0.5],[1,0.5]];portConstraint=eastwest;" vertex="1" parent="O9-JjZMZdbI-KJjb6Adc-2">
                    <mxGeometry y="60" width="160" height="26" as="geometry"/>
                </mxCell>
                <mxCell id="O9-JjZMZdbI-KJjb6Adc-7" value="" style="line;strokeWidth=1;fillColor=none;align=left;verticalAlign=middle;spacingTop=-1;spacingLeft=3;spacingRight=3;rotatable=0;labelPosition=right;points=[];portConstraint=eastwest;" vertex="1" parent="O9-JjZMZdbI-KJjb6Adc-2">
                    <mxGeometry y="86" width="160" height="8" as="geometry"/>
                </mxCell>
                <mxCell id="O9-JjZMZdbI-KJjb6Adc-6" value="- sexuality : String" style="text;strokeColor=none;fillColor=none;align=left;verticalAlign=top;spacingLeft=4;spacingRight=4;overflow=hidden;rotatable=0;points=[[0,0.5],[1,0.5]];portConstraint=eastwest;" vertex="1" parent="O9-JjZMZdbI-KJjb6Adc-2">
                    <mxGeometry y="94" width="160" height="26" as="geometry"/>
                </mxCell>
                <mxCell id="fu4_gHZbqFsZI3F-ixwy-0" value="InferenceApiResult" style="swimlane;fontStyle=0;childLayout=stackLayout;horizontal=1;startSize=30;horizontalStack=0;resizeParent=1;resizeParentMax=0;resizeLast=0;collapsible=1;marginBottom=0;" vertex="1" parent="4F4TVd0Hu51OqxBF1fFu-1">
                    <mxGeometry x="390" y="340" width="160" height="150" as="geometry"/>
                </mxCell>
                <mxCell id="fu4_gHZbqFsZI3F-ixwy-1" value="- result : int" style="text;strokeColor=none;fillColor=none;align=left;verticalAlign=middle;spacingLeft=4;spacingRight=4;overflow=hidden;points=[[0,0.5],[1,0.5]];portConstraint=eastwest;rotatable=0;" vertex="1" parent="fu4_gHZbqFsZI3F-ixwy-0">
                    <mxGeometry y="30" width="160" height="30" as="geometry"/>
                </mxCell>
                <mxCell id="fu4_gHZbqFsZI3F-ixwy-2" value="- dbId : String " style="text;strokeColor=none;fillColor=none;align=left;verticalAlign=middle;spacingLeft=4;spacingRight=4;overflow=hidden;points=[[0,0.5],[1,0.5]];portConstraint=eastwest;rotatable=0;" vertex="1" parent="fu4_gHZbqFsZI3F-ixwy-0">
                    <mxGeometry y="60" width="160" height="30" as="geometry"/>
                </mxCell>
                <mxCell id="fu4_gHZbqFsZI3F-ixwy-3" value="- headUrl : String" style="text;strokeColor=none;fillColor=none;align=left;verticalAlign=middle;spacingLeft=4;spacingRight=4;overflow=hidden;points=[[0,0.5],[1,0.5]];portConstraint=eastwest;rotatable=0;" vertex="1" parent="fu4_gHZbqFsZI3F-ixwy-0">
                    <mxGeometry y="90" width="160" height="30" as="geometry"/>
                </mxCell>
                <mxCell id="fu4_gHZbqFsZI3F-ixwy-4" value="&lt;div&gt;&lt;span&gt;&amp;nbsp;- toonifyUrl : String&lt;/span&gt;&lt;/div&gt;" style="text;html=1;strokeColor=none;fillColor=none;align=left;verticalAlign=middle;whiteSpace=wrap;rounded=0;" vertex="1" parent="fu4_gHZbqFsZI3F-ixwy-0">
                    <mxGeometry y="120" width="160" height="30" as="geometry"/>
                </mxCell>
                <mxCell id="fu4_gHZbqFsZI3F-ixwy-5" value="POST /combine-avatar" style="swimlane;fontStyle=0;childLayout=stackLayout;horizontal=1;startSize=26;fillColor=none;horizontalStack=0;resizeParent=1;resizeParentMax=0;resizeLast=0;collapsible=1;marginBottom=0;" vertex="1" parent="4F4TVd0Hu51OqxBF1fFu-1">
                    <mxGeometry x="250" y="550" width="220" height="110" as="geometry"/>
                </mxCell>
                <mxCell id="fu4_gHZbqFsZI3F-ixwy-6" value="" style="html=1;shadow=0;dashed=0;align=center;verticalAlign=middle;shape=mxgraph.arrows2.arrow;dy=0.6;dx=40;direction=north;notch=0;" vertex="1" parent="4F4TVd0Hu51OqxBF1fFu-1">
                    <mxGeometry x="290" y="620" width="20" height="70" as="geometry"/>
                </mxCell>
                <mxCell id="fu4_gHZbqFsZI3F-ixwy-7" value="" style="html=1;shadow=0;dashed=0;align=center;verticalAlign=middle;shape=mxgraph.arrows2.arrow;dy=0.6;dx=40;direction=north;notch=0;rotation=-180;" vertex="1" parent="4F4TVd0Hu51OqxBF1fFu-1">
                    <mxGeometry x="410" y="620" width="20" height="70" as="geometry"/>
                </mxCell>
                <mxCell id="fu4_gHZbqFsZI3F-ixwy-8" value="(input)" style="swimlane;fontStyle=1;align=center;verticalAlign=top;childLayout=stackLayout;horizontal=1;startSize=26;horizontalStack=0;resizeParent=1;resizeParentMax=0;resizeLast=0;collapsible=1;marginBottom=0;" vertex="1" parent="4F4TVd0Hu51OqxBF1fFu-1">
                    <mxGeometry x="170" y="690" width="160" height="120" as="geometry"/>
                </mxCell>
                <mxCell id="fu4_gHZbqFsZI3F-ixwy-9" value="- dbId : String" style="text;strokeColor=none;fillColor=none;align=left;verticalAlign=top;spacingLeft=4;spacingRight=4;overflow=hidden;rotatable=0;points=[[0,0.5],[1,0.5]];portConstraint=eastwest;" vertex="1" parent="fu4_gHZbqFsZI3F-ixwy-8">
                    <mxGeometry y="26" width="160" height="26" as="geometry"/>
                </mxCell>
                <mxCell id="fu4_gHZbqFsZI3F-ixwy-10" value="" style="line;strokeWidth=1;fillColor=none;align=left;verticalAlign=middle;spacingTop=-1;spacingLeft=3;spacingRight=3;rotatable=0;labelPosition=right;points=[];portConstraint=eastwest;" vertex="1" parent="fu4_gHZbqFsZI3F-ixwy-8">
                    <mxGeometry y="52" width="160" height="8" as="geometry"/>
                </mxCell>
                <mxCell id="fu4_gHZbqFsZI3F-ixwy-11" value="- bodyNum : int" style="text;strokeColor=none;fillColor=none;align=left;verticalAlign=top;spacingLeft=4;spacingRight=4;overflow=hidden;rotatable=0;points=[[0,0.5],[1,0.5]];portConstraint=eastwest;" vertex="1" parent="fu4_gHZbqFsZI3F-ixwy-8">
                    <mxGeometry y="60" width="160" height="26" as="geometry"/>
                </mxCell>
                <mxCell id="fu4_gHZbqFsZI3F-ixwy-12" value="" style="line;strokeWidth=1;fillColor=none;align=left;verticalAlign=middle;spacingTop=-1;spacingLeft=3;spacingRight=3;rotatable=0;labelPosition=right;points=[];portConstraint=eastwest;" vertex="1" parent="fu4_gHZbqFsZI3F-ixwy-8">
                    <mxGeometry y="86" width="160" height="8" as="geometry"/>
                </mxCell>
                <mxCell id="fu4_gHZbqFsZI3F-ixwy-13" value="- hairNum : int" style="text;strokeColor=none;fillColor=none;align=left;verticalAlign=top;spacingLeft=4;spacingRight=4;overflow=hidden;rotatable=0;points=[[0,0.5],[1,0.5]];portConstraint=eastwest;" vertex="1" parent="fu4_gHZbqFsZI3F-ixwy-8">
                    <mxGeometry y="94" width="160" height="26" as="geometry"/>
                </mxCell>
                <mxCell id="gs97SP22sKgn2sAeu7Vg-0" value="CombineAvatarApiResult" style="swimlane;fontStyle=1;align=center;verticalAlign=top;childLayout=stackLayout;horizontal=1;startSize=26;horizontalStack=0;resizeParent=1;resizeParentMax=0;resizeLast=0;collapsible=1;marginBottom=0;" vertex="1" parent="4F4TVd0Hu51OqxBF1fFu-1">
                    <mxGeometry x="390" y="690" width="160" height="86" as="geometry"/>
                </mxCell>
                <mxCell id="gs97SP22sKgn2sAeu7Vg-1" value="- result : int        " style="text;strokeColor=none;fillColor=none;align=left;verticalAlign=top;spacingLeft=4;spacingRight=4;overflow=hidden;rotatable=0;points=[[0,0.5],[1,0.5]];portConstraint=eastwest;" vertex="1" parent="gs97SP22sKgn2sAeu7Vg-0">
                    <mxGeometry y="26" width="160" height="26" as="geometry"/>
                </mxCell>
                <mxCell id="gs97SP22sKgn2sAeu7Vg-2" value="" style="line;strokeWidth=1;fillColor=none;align=left;verticalAlign=middle;spacingTop=-1;spacingLeft=3;spacingRight=3;rotatable=0;labelPosition=right;points=[];portConstraint=eastwest;" vertex="1" parent="gs97SP22sKgn2sAeu7Vg-0">
                    <mxGeometry y="52" width="160" height="8" as="geometry"/>
                </mxCell>
                <mxCell id="gs97SP22sKgn2sAeu7Vg-3" value="- objectUrl : String" style="text;strokeColor=none;fillColor=none;align=left;verticalAlign=top;spacingLeft=4;spacingRight=4;overflow=hidden;rotatable=0;points=[[0,0.5],[1,0.5]];portConstraint=eastwest;" vertex="1" parent="gs97SP22sKgn2sAeu7Vg-0">
                    <mxGeometry y="60" width="160" height="26" as="geometry"/>
                </mxCell>
                <mxCell id="gs97SP22sKgn2sAeu7Vg-4" value="GET /avatar" style="swimlane;fontStyle=0;childLayout=stackLayout;horizontal=1;startSize=26;fillColor=none;horizontalStack=0;resizeParent=1;resizeParentMax=0;resizeLast=0;collapsible=1;marginBottom=0;" vertex="1" parent="4F4TVd0Hu51OqxBF1fFu-1">
                    <mxGeometry x="250" y="870" width="220" height="110" as="geometry"/>
                </mxCell>
                <mxCell id="gs97SP22sKgn2sAeu7Vg-5" value="" style="html=1;shadow=0;dashed=0;align=center;verticalAlign=middle;shape=mxgraph.arrows2.arrow;dy=0.6;dx=40;direction=north;notch=0;" vertex="1" parent="4F4TVd0Hu51OqxBF1fFu-1">
                    <mxGeometry x="290" y="940" width="20" height="70" as="geometry"/>
                </mxCell>
                <mxCell id="gs97SP22sKgn2sAeu7Vg-6" value="" style="html=1;shadow=0;dashed=0;align=center;verticalAlign=middle;shape=mxgraph.arrows2.arrow;dy=0.6;dx=40;direction=north;notch=0;rotation=-180;" vertex="1" parent="4F4TVd0Hu51OqxBF1fFu-1">
                    <mxGeometry x="410" y="940" width="20" height="70" as="geometry"/>
                </mxCell>
                <mxCell id="gs97SP22sKgn2sAeu7Vg-7" value="(input)" style="swimlane;fontStyle=1;align=center;verticalAlign=top;childLayout=stackLayout;horizontal=1;startSize=26;horizontalStack=0;resizeParent=1;resizeParentMax=0;resizeLast=0;collapsible=1;marginBottom=0;" vertex="1" parent="4F4TVd0Hu51OqxBF1fFu-1">
                    <mxGeometry x="170" y="1010" width="160" height="52" as="geometry"/>
                </mxCell>
                <mxCell id="gs97SP22sKgn2sAeu7Vg-8" value="- dbId : String" style="text;strokeColor=none;fillColor=none;align=left;verticalAlign=top;spacingLeft=4;spacingRight=4;overflow=hidden;rotatable=0;points=[[0,0.5],[1,0.5]];portConstraint=eastwest;" vertex="1" parent="gs97SP22sKgn2sAeu7Vg-7">
                    <mxGeometry y="26" width="160" height="26" as="geometry"/>
                </mxCell>
                <mxCell id="gs97SP22sKgn2sAeu7Vg-13" value="CombineAvatarApiResult" style="swimlane;fontStyle=1;align=center;verticalAlign=top;childLayout=stackLayout;horizontal=1;startSize=26;horizontalStack=0;resizeParent=1;resizeParentMax=0;resizeLast=0;collapsible=1;marginBottom=0;" vertex="1" parent="4F4TVd0Hu51OqxBF1fFu-1">
                    <mxGeometry x="390" y="1010" width="160" height="86" as="geometry"/>
                </mxCell>
                <mxCell id="gs97SP22sKgn2sAeu7Vg-14" value="- result : int        " style="text;strokeColor=none;fillColor=none;align=left;verticalAlign=top;spacingLeft=4;spacingRight=4;overflow=hidden;rotatable=0;points=[[0,0.5],[1,0.5]];portConstraint=eastwest;" vertex="1" parent="gs97SP22sKgn2sAeu7Vg-13">
                    <mxGeometry y="26" width="160" height="26" as="geometry"/>
                </mxCell>
                <mxCell id="gs97SP22sKgn2sAeu7Vg-15" value="" style="line;strokeWidth=1;fillColor=none;align=left;verticalAlign=middle;spacingTop=-1;spacingLeft=3;spacingRight=3;rotatable=0;labelPosition=right;points=[];portConstraint=eastwest;" vertex="1" parent="gs97SP22sKgn2sAeu7Vg-13">
                    <mxGeometry y="52" width="160" height="8" as="geometry"/>
                </mxCell>
                <mxCell id="gs97SP22sKgn2sAeu7Vg-16" value="- objectUrl : String" style="text;strokeColor=none;fillColor=none;align=left;verticalAlign=top;spacingLeft=4;spacingRight=4;overflow=hidden;rotatable=0;points=[[0,0.5],[1,0.5]];portConstraint=eastwest;" vertex="1" parent="gs97SP22sKgn2sAeu7Vg-13">
                    <mxGeometry y="60" width="160" height="26" as="geometry"/>
                </mxCell>
                <mxCell id="gs97SP22sKgn2sAeu7Vg-17" value="GET /toonify" style="swimlane;fontStyle=0;childLayout=stackLayout;horizontal=1;startSize=26;fillColor=none;horizontalStack=0;resizeParent=1;resizeParentMax=0;resizeLast=0;collapsible=1;marginBottom=0;" vertex="1" parent="4F4TVd0Hu51OqxBF1fFu-1">
                    <mxGeometry x="250" y="1210" width="220" height="110" as="geometry"/>
                </mxCell>
                <mxCell id="gs97SP22sKgn2sAeu7Vg-18" value="" style="html=1;shadow=0;dashed=0;align=center;verticalAlign=middle;shape=mxgraph.arrows2.arrow;dy=0.6;dx=40;direction=north;notch=0;" vertex="1" parent="4F4TVd0Hu51OqxBF1fFu-1">
                    <mxGeometry x="290" y="1280" width="20" height="70" as="geometry"/>
                </mxCell>
                <mxCell id="gs97SP22sKgn2sAeu7Vg-19" value="" style="html=1;shadow=0;dashed=0;align=center;verticalAlign=middle;shape=mxgraph.arrows2.arrow;dy=0.6;dx=40;direction=north;notch=0;rotation=-180;" vertex="1" parent="4F4TVd0Hu51OqxBF1fFu-1">
                    <mxGeometry x="410" y="1280" width="20" height="70" as="geometry"/>
                </mxCell>
                <mxCell id="gs97SP22sKgn2sAeu7Vg-20" value="(input)" style="swimlane;fontStyle=1;align=center;verticalAlign=top;childLayout=stackLayout;horizontal=1;startSize=26;horizontalStack=0;resizeParent=1;resizeParentMax=0;resizeLast=0;collapsible=1;marginBottom=0;" vertex="1" parent="4F4TVd0Hu51OqxBF1fFu-1">
                    <mxGeometry x="170" y="1350" width="160" height="52" as="geometry"/>
                </mxCell>
                <mxCell id="gs97SP22sKgn2sAeu7Vg-21" value="- dbId : String" style="text;strokeColor=none;fillColor=none;align=left;verticalAlign=top;spacingLeft=4;spacingRight=4;overflow=hidden;rotatable=0;points=[[0,0.5],[1,0.5]];portConstraint=eastwest;" vertex="1" parent="gs97SP22sKgn2sAeu7Vg-20">
                    <mxGeometry y="26" width="160" height="26" as="geometry"/>
                </mxCell>
                <mxCell id="wKQi5iLuzgL10v8vC6Z6-0" value="GetToonifyApiResult" style="swimlane;fontStyle=1;align=center;verticalAlign=top;childLayout=stackLayout;horizontal=1;startSize=26;horizontalStack=0;resizeParent=1;resizeParentMax=0;resizeLast=0;collapsible=1;marginBottom=0;" vertex="1" parent="4F4TVd0Hu51OqxBF1fFu-1">
                    <mxGeometry x="390" y="1350" width="160" height="86" as="geometry"/>
                </mxCell>
                <mxCell id="wKQi5iLuzgL10v8vC6Z6-1" value="- result : int        " style="text;strokeColor=none;fillColor=none;align=left;verticalAlign=top;spacingLeft=4;spacingRight=4;overflow=hidden;rotatable=0;points=[[0,0.5],[1,0.5]];portConstraint=eastwest;" vertex="1" parent="wKQi5iLuzgL10v8vC6Z6-0">
                    <mxGeometry y="26" width="160" height="26" as="geometry"/>
                </mxCell>
                <mxCell id="wKQi5iLuzgL10v8vC6Z6-2" value="" style="line;strokeWidth=1;fillColor=none;align=left;verticalAlign=middle;spacingTop=-1;spacingLeft=3;spacingRight=3;rotatable=0;labelPosition=right;points=[];portConstraint=eastwest;" vertex="1" parent="wKQi5iLuzgL10v8vC6Z6-0">
                    <mxGeometry y="52" width="160" height="8" as="geometry"/>
                </mxCell>
                <mxCell id="wKQi5iLuzgL10v8vC6Z6-3" value="- imageUrl : String" style="text;strokeColor=none;fillColor=none;align=left;verticalAlign=top;spacingLeft=4;spacingRight=4;overflow=hidden;rotatable=0;points=[[0,0.5],[1,0.5]];portConstraint=eastwest;" vertex="1" parent="wKQi5iLuzgL10v8vC6Z6-0">
                    <mxGeometry y="60" width="160" height="26" as="geometry"/>
                </mxCell>
                <mxCell id="wKQi5iLuzgL10v8vC6Z6-23" value="GET /bodys" style="swimlane;fontStyle=0;childLayout=stackLayout;horizontal=1;startSize=26;fillColor=none;horizontalStack=0;resizeParent=1;resizeParentMax=0;resizeLast=0;collapsible=1;marginBottom=0;" vertex="1" parent="4F4TVd0Hu51OqxBF1fFu-1">
                    <mxGeometry x="250" y="1520" width="220" height="110" as="geometry"/>
                </mxCell>
                <mxCell id="wKQi5iLuzgL10v8vC6Z6-24" value="" style="html=1;shadow=0;dashed=0;align=center;verticalAlign=middle;shape=mxgraph.arrows2.arrow;dy=0.6;dx=40;direction=north;notch=0;" vertex="1" parent="4F4TVd0Hu51OqxBF1fFu-1">
                    <mxGeometry x="290" y="1590" width="20" height="70" as="geometry"/>
                </mxCell>
                <mxCell id="wKQi5iLuzgL10v8vC6Z6-25" value="" style="html=1;shadow=0;dashed=0;align=center;verticalAlign=middle;shape=mxgraph.arrows2.arrow;dy=0.6;dx=40;direction=north;notch=0;rotation=-180;" vertex="1" parent="4F4TVd0Hu51OqxBF1fFu-1">
                    <mxGeometry x="410" y="1590" width="20" height="70" as="geometry"/>
                </mxCell>
                <mxCell id="wKQi5iLuzgL10v8vC6Z6-26" value="(input)" style="swimlane;fontStyle=1;align=center;verticalAlign=top;childLayout=stackLayout;horizontal=1;startSize=26;horizontalStack=0;resizeParent=1;resizeParentMax=0;resizeLast=0;collapsible=1;marginBottom=0;" vertex="1" parent="4F4TVd0Hu51OqxBF1fFu-1">
                    <mxGeometry x="170" y="1660" width="160" height="52" as="geometry"/>
                </mxCell>
                <mxCell id="wKQi5iLuzgL10v8vC6Z6-27" value="- sexuality : String" style="text;strokeColor=none;fillColor=none;align=left;verticalAlign=top;spacingLeft=4;spacingRight=4;overflow=hidden;rotatable=0;points=[[0,0.5],[1,0.5]];portConstraint=eastwest;" vertex="1" parent="wKQi5iLuzgL10v8vC6Z6-26">
                    <mxGeometry y="26" width="160" height="26" as="geometry"/>
                </mxCell>
                <mxCell id="wKQi5iLuzgL10v8vC6Z6-28" value="(output)" style="swimlane;fontStyle=1;align=center;verticalAlign=top;childLayout=stackLayout;horizontal=1;startSize=26;horizontalStack=0;resizeParent=1;resizeParentMax=0;resizeLast=0;collapsible=1;marginBottom=0;" vertex="1" parent="4F4TVd0Hu51OqxBF1fFu-1">
                    <mxGeometry x="390" y="1660" width="160" height="52" as="geometry"/>
                </mxCell>
                <mxCell id="wKQi5iLuzgL10v8vC6Z6-29" value="- List&lt;BodyInfoItem&gt;" style="text;strokeColor=none;fillColor=none;align=left;verticalAlign=top;spacingLeft=4;spacingRight=4;overflow=hidden;rotatable=0;points=[[0,0.5],[1,0.5]];portConstraint=eastwest;" vertex="1" parent="wKQi5iLuzgL10v8vC6Z6-28">
                    <mxGeometry y="26" width="160" height="26" as="geometry"/>
                </mxCell>
                <mxCell id="PR__PFVPCR1YqAebCwey-0" value="BodyInfoItem" style="swimlane;fontStyle=1;align=center;verticalAlign=top;childLayout=stackLayout;horizontal=1;startSize=26;horizontalStack=0;resizeParent=1;resizeParentMax=0;resizeLast=0;collapsible=1;marginBottom=0;" vertex="1" parent="4F4TVd0Hu51OqxBF1fFu-1">
                    <mxGeometry x="390" y="1750" width="160" height="120" as="geometry"/>
                </mxCell>
                <mxCell id="PR__PFVPCR1YqAebCwey-1" value="- num : int" style="text;strokeColor=none;fillColor=none;align=left;verticalAlign=top;spacingLeft=4;spacingRight=4;overflow=hidden;rotatable=0;points=[[0,0.5],[1,0.5]];portConstraint=eastwest;" vertex="1" parent="PR__PFVPCR1YqAebCwey-0">
                    <mxGeometry y="26" width="160" height="26" as="geometry"/>
                </mxCell>
                <mxCell id="PR__PFVPCR1YqAebCwey-2" value="" style="line;strokeWidth=1;fillColor=none;align=left;verticalAlign=middle;spacingTop=-1;spacingLeft=3;spacingRight=3;rotatable=0;labelPosition=right;points=[];portConstraint=eastwest;" vertex="1" parent="PR__PFVPCR1YqAebCwey-0">
                    <mxGeometry y="52" width="160" height="8" as="geometry"/>
                </mxCell>
                <mxCell id="PR__PFVPCR1YqAebCwey-3" value="- imgUrl : String" style="text;strokeColor=none;fillColor=none;align=left;verticalAlign=top;spacingLeft=4;spacingRight=4;overflow=hidden;rotatable=0;points=[[0,0.5],[1,0.5]];portConstraint=eastwest;" vertex="1" parent="PR__PFVPCR1YqAebCwey-0">
                    <mxGeometry y="60" width="160" height="26" as="geometry"/>
                </mxCell>
                <mxCell id="PR__PFVPCR1YqAebCwey-4" value="" style="line;strokeWidth=1;fillColor=none;align=left;verticalAlign=middle;spacingTop=-1;spacingLeft=3;spacingRight=3;rotatable=0;labelPosition=right;points=[];portConstraint=eastwest;" vertex="1" parent="PR__PFVPCR1YqAebCwey-0">
                    <mxGeometry y="86" width="160" height="8" as="geometry"/>
                </mxCell>
                <mxCell id="PR__PFVPCR1YqAebCwey-5" value="- fbxUrl : String" style="text;strokeColor=none;fillColor=none;align=left;verticalAlign=top;spacingLeft=4;spacingRight=4;overflow=hidden;rotatable=0;points=[[0,0.5],[1,0.5]];portConstraint=eastwest;" vertex="1" parent="PR__PFVPCR1YqAebCwey-0">
                    <mxGeometry y="94" width="160" height="26" as="geometry"/>
                </mxCell>
                <mxCell id="OWHRrS3uoeU5I0it41Q7-0" value="Use" style="endArrow=open;endSize=12;dashed=1;html=1;" edge="1" parent="4F4TVd0Hu51OqxBF1fFu-1" source="wKQi5iLuzgL10v8vC6Z6-29" target="PR__PFVPCR1YqAebCwey-0">
                    <mxGeometry width="160" relative="1" as="geometry">
                        <mxPoint x="360" y="1560" as="sourcePoint"/>
                        <mxPoint x="520" y="1560" as="targetPoint"/>
                    </mxGeometry>
                </mxCell>
                <mxCell id="OWHRrS3uoeU5I0it41Q7-1" value="GET /hairs" style="swimlane;fontStyle=0;childLayout=stackLayout;horizontal=1;startSize=26;fillColor=none;horizontalStack=0;resizeParent=1;resizeParentMax=0;resizeLast=0;collapsible=1;marginBottom=0;" vertex="1" parent="4F4TVd0Hu51OqxBF1fFu-1">
                    <mxGeometry x="250" y="1930" width="220" height="110" as="geometry"/>
                </mxCell>
                <mxCell id="OWHRrS3uoeU5I0it41Q7-2" value="" style="html=1;shadow=0;dashed=0;align=center;verticalAlign=middle;shape=mxgraph.arrows2.arrow;dy=0.6;dx=40;direction=north;notch=0;" vertex="1" parent="4F4TVd0Hu51OqxBF1fFu-1">
                    <mxGeometry x="290" y="2000" width="20" height="70" as="geometry"/>
                </mxCell>
                <mxCell id="OWHRrS3uoeU5I0it41Q7-3" value="" style="html=1;shadow=0;dashed=0;align=center;verticalAlign=middle;shape=mxgraph.arrows2.arrow;dy=0.6;dx=40;direction=north;notch=0;rotation=-180;" vertex="1" parent="4F4TVd0Hu51OqxBF1fFu-1">
                    <mxGeometry x="410" y="2000" width="20" height="70" as="geometry"/>
                </mxCell>
                <mxCell id="OWHRrS3uoeU5I0it41Q7-4" value="(input)" style="swimlane;fontStyle=1;align=center;verticalAlign=top;childLayout=stackLayout;horizontal=1;startSize=26;horizontalStack=0;resizeParent=1;resizeParentMax=0;resizeLast=0;collapsible=1;marginBottom=0;" vertex="1" parent="4F4TVd0Hu51OqxBF1fFu-1">
                    <mxGeometry x="170" y="2070" width="160" height="52" as="geometry"/>
                </mxCell>
                <mxCell id="OWHRrS3uoeU5I0it41Q7-5" value="- sexuality : String" style="text;strokeColor=none;fillColor=none;align=left;verticalAlign=top;spacingLeft=4;spacingRight=4;overflow=hidden;rotatable=0;points=[[0,0.5],[1,0.5]];portConstraint=eastwest;" vertex="1" parent="OWHRrS3uoeU5I0it41Q7-4">
                    <mxGeometry y="26" width="160" height="26" as="geometry"/>
                </mxCell>
                <mxCell id="OWHRrS3uoeU5I0it41Q7-6" value="(output)" style="swimlane;fontStyle=1;align=center;verticalAlign=top;childLayout=stackLayout;horizontal=1;startSize=26;horizontalStack=0;resizeParent=1;resizeParentMax=0;resizeLast=0;collapsible=1;marginBottom=0;" vertex="1" parent="4F4TVd0Hu51OqxBF1fFu-1">
                    <mxGeometry x="390" y="2070" width="160" height="52" as="geometry"/>
                </mxCell>
                <mxCell id="OWHRrS3uoeU5I0it41Q7-7" value="- List&lt;HairInfoItem&gt;" style="text;strokeColor=none;fillColor=none;align=left;verticalAlign=top;spacingLeft=4;spacingRight=4;overflow=hidden;rotatable=0;points=[[0,0.5],[1,0.5]];portConstraint=eastwest;" vertex="1" parent="OWHRrS3uoeU5I0it41Q7-6">
                    <mxGeometry y="26" width="160" height="26" as="geometry"/>
                </mxCell>
                <mxCell id="OWHRrS3uoeU5I0it41Q7-8" value="HairInfoItem" style="swimlane;fontStyle=1;align=center;verticalAlign=top;childLayout=stackLayout;horizontal=1;startSize=26;horizontalStack=0;resizeParent=1;resizeParentMax=0;resizeLast=0;collapsible=1;marginBottom=0;" vertex="1" parent="4F4TVd0Hu51OqxBF1fFu-1">
                    <mxGeometry x="390" y="2160" width="160" height="120" as="geometry"/>
                </mxCell>
                <mxCell id="OWHRrS3uoeU5I0it41Q7-9" value="- num : int" style="text;strokeColor=none;fillColor=none;align=left;verticalAlign=top;spacingLeft=4;spacingRight=4;overflow=hidden;rotatable=0;points=[[0,0.5],[1,0.5]];portConstraint=eastwest;" vertex="1" parent="OWHRrS3uoeU5I0it41Q7-8">
                    <mxGeometry y="26" width="160" height="26" as="geometry"/>
                </mxCell>
                <mxCell id="OWHRrS3uoeU5I0it41Q7-10" value="" style="line;strokeWidth=1;fillColor=none;align=left;verticalAlign=middle;spacingTop=-1;spacingLeft=3;spacingRight=3;rotatable=0;labelPosition=right;points=[];portConstraint=eastwest;" vertex="1" parent="OWHRrS3uoeU5I0it41Q7-8">
                    <mxGeometry y="52" width="160" height="8" as="geometry"/>
                </mxCell>
                <mxCell id="OWHRrS3uoeU5I0it41Q7-11" value="- imgUrl : String" style="text;strokeColor=none;fillColor=none;align=left;verticalAlign=top;spacingLeft=4;spacingRight=4;overflow=hidden;rotatable=0;points=[[0,0.5],[1,0.5]];portConstraint=eastwest;" vertex="1" parent="OWHRrS3uoeU5I0it41Q7-8">
                    <mxGeometry y="60" width="160" height="26" as="geometry"/>
                </mxCell>
                <mxCell id="OWHRrS3uoeU5I0it41Q7-12" value="" style="line;strokeWidth=1;fillColor=none;align=left;verticalAlign=middle;spacingTop=-1;spacingLeft=3;spacingRight=3;rotatable=0;labelPosition=right;points=[];portConstraint=eastwest;" vertex="1" parent="OWHRrS3uoeU5I0it41Q7-8">
                    <mxGeometry y="86" width="160" height="8" as="geometry"/>
                </mxCell>
                <mxCell id="OWHRrS3uoeU5I0it41Q7-13" value="- fbxUrl : String" style="text;strokeColor=none;fillColor=none;align=left;verticalAlign=top;spacingLeft=4;spacingRight=4;overflow=hidden;rotatable=0;points=[[0,0.5],[1,0.5]];portConstraint=eastwest;" vertex="1" parent="OWHRrS3uoeU5I0it41Q7-8">
                    <mxGeometry y="94" width="160" height="26" as="geometry"/>
                </mxCell>
                <mxCell id="OWHRrS3uoeU5I0it41Q7-14" value="Use" style="endArrow=open;endSize=12;dashed=1;html=1;" edge="1" parent="4F4TVd0Hu51OqxBF1fFu-1" source="OWHRrS3uoeU5I0it41Q7-7" target="OWHRrS3uoeU5I0it41Q7-8">
                    <mxGeometry width="160" relative="1" as="geometry">
                        <mxPoint x="360" y="1970" as="sourcePoint"/>
                        <mxPoint x="520" y="1970" as="targetPoint"/>
                    </mxGeometry>
                </mxCell>
                <mxCell id="OWHRrS3uoeU5I0it41Q7-15" value="GET /sexuality" style="swimlane;fontStyle=0;childLayout=stackLayout;horizontal=1;startSize=26;fillColor=none;horizontalStack=0;resizeParent=1;resizeParentMax=0;resizeLast=0;collapsible=1;marginBottom=0;" vertex="1" parent="4F4TVd0Hu51OqxBF1fFu-1">
                    <mxGeometry x="250" y="2320" width="220" height="110" as="geometry"/>
                </mxCell>
                <mxCell id="OWHRrS3uoeU5I0it41Q7-16" value="" style="html=1;shadow=0;dashed=0;align=center;verticalAlign=middle;shape=mxgraph.arrows2.arrow;dy=0.6;dx=40;direction=north;notch=0;" vertex="1" parent="4F4TVd0Hu51OqxBF1fFu-1">
                    <mxGeometry x="290" y="2390" width="20" height="70" as="geometry"/>
                </mxCell>
                <mxCell id="OWHRrS3uoeU5I0it41Q7-17" value="" style="html=1;shadow=0;dashed=0;align=center;verticalAlign=middle;shape=mxgraph.arrows2.arrow;dy=0.6;dx=40;direction=north;notch=0;rotation=-180;" vertex="1" parent="4F4TVd0Hu51OqxBF1fFu-1">
                    <mxGeometry x="410" y="2390" width="20" height="70" as="geometry"/>
                </mxCell>
                <mxCell id="OWHRrS3uoeU5I0it41Q7-18" value="(input)" style="swimlane;fontStyle=1;align=center;verticalAlign=top;childLayout=stackLayout;horizontal=1;startSize=26;horizontalStack=0;resizeParent=1;resizeParentMax=0;resizeLast=0;collapsible=1;marginBottom=0;" vertex="1" parent="4F4TVd0Hu51OqxBF1fFu-1">
                    <mxGeometry x="170" y="2460" width="160" height="52" as="geometry"/>
                </mxCell>
                <mxCell id="OWHRrS3uoeU5I0it41Q7-19" value="- dbId : String" style="text;strokeColor=none;fillColor=none;align=left;verticalAlign=top;spacingLeft=4;spacingRight=4;overflow=hidden;rotatable=0;points=[[0,0.5],[1,0.5]];portConstraint=eastwest;" vertex="1" parent="OWHRrS3uoeU5I0it41Q7-18">
                    <mxGeometry y="26" width="160" height="26" as="geometry"/>
                </mxCell>
                <mxCell id="OWHRrS3uoeU5I0it41Q7-20" value="(output)" style="swimlane;fontStyle=1;align=center;verticalAlign=top;childLayout=stackLayout;horizontal=1;startSize=26;horizontalStack=0;resizeParent=1;resizeParentMax=0;resizeLast=0;collapsible=1;marginBottom=0;" vertex="1" parent="4F4TVd0Hu51OqxBF1fFu-1">
                    <mxGeometry x="390" y="2460" width="160" height="52" as="geometry"/>
                </mxCell>
                <mxCell id="OWHRrS3uoeU5I0it41Q7-21" value="- Sexuality" style="text;strokeColor=none;fillColor=none;align=left;verticalAlign=top;spacingLeft=4;spacingRight=4;overflow=hidden;rotatable=0;points=[[0,0.5],[1,0.5]];portConstraint=eastwest;" vertex="1" parent="OWHRrS3uoeU5I0it41Q7-20">
                    <mxGeometry y="26" width="160" height="26" as="geometry"/>
                </mxCell>
                <mxCell id="OWHRrS3uoeU5I0it41Q7-28" value="Use" style="endArrow=open;endSize=12;dashed=1;html=1;entryX=0.5;entryY=0;entryDx=0;entryDy=0;" edge="1" parent="4F4TVd0Hu51OqxBF1fFu-1" source="OWHRrS3uoeU5I0it41Q7-21" target="5FN2btPV9bPS1GdaOODC-0">
                    <mxGeometry width="160" relative="1" as="geometry">
                        <mxPoint x="360" y="2360" as="sourcePoint"/>
                        <mxPoint x="470" y="2550" as="targetPoint"/>
                        <Array as="points"/>
                    </mxGeometry>
                </mxCell>
                <mxCell id="5FN2btPV9bPS1GdaOODC-0" value="Sexuality" style="swimlane;fontStyle=0;childLayout=stackLayout;horizontal=1;startSize=30;horizontalStack=0;resizeParent=1;resizeParentMax=0;resizeLast=0;collapsible=1;marginBottom=0;" vertex="1" parent="4F4TVd0Hu51OqxBF1fFu-1">
                    <mxGeometry x="400" y="2550" width="140" height="90" as="geometry"/>
                </mxCell>
                <mxCell id="5FN2btPV9bPS1GdaOODC-1" value="&amp;nbsp;- MALE&amp;nbsp; = &quot;male&quot;&lt;br&gt;&lt;div&gt;&lt;/div&gt;" style="text;html=1;strokeColor=none;fillColor=none;align=left;verticalAlign=middle;whiteSpace=wrap;rounded=0;" vertex="1" parent="5FN2btPV9bPS1GdaOODC-0">
                    <mxGeometry y="30" width="140" height="30" as="geometry"/>
                </mxCell>
                <mxCell id="5FN2btPV9bPS1GdaOODC-2" value="&amp;nbsp;- FEMALE = &quot;female&quot;" style="text;html=1;strokeColor=none;fillColor=none;align=left;verticalAlign=middle;whiteSpace=wrap;rounded=0;" vertex="1" parent="5FN2btPV9bPS1GdaOODC-0">
                    <mxGeometry y="60" width="140" height="30" as="geometry"/>
                </mxCell>
                <mxCell id="5FN2btPV9bPS1GdaOODC-3" value="GET /style" style="swimlane;fontStyle=0;childLayout=stackLayout;horizontal=1;startSize=26;fillColor=none;horizontalStack=0;resizeParent=1;resizeParentMax=0;resizeLast=0;collapsible=1;marginBottom=0;" vertex="1" parent="4F4TVd0Hu51OqxBF1fFu-1">
                    <mxGeometry x="250" y="2690" width="220" height="110" as="geometry"/>
                </mxCell>
                <mxCell id="5FN2btPV9bPS1GdaOODC-4" value="" style="html=1;shadow=0;dashed=0;align=center;verticalAlign=middle;shape=mxgraph.arrows2.arrow;dy=0.6;dx=40;direction=north;notch=0;" vertex="1" parent="4F4TVd0Hu51OqxBF1fFu-1">
                    <mxGeometry x="290" y="2760" width="20" height="70" as="geometry"/>
                </mxCell>
                <mxCell id="5FN2btPV9bPS1GdaOODC-5" value="" style="html=1;shadow=0;dashed=0;align=center;verticalAlign=middle;shape=mxgraph.arrows2.arrow;dy=0.6;dx=40;direction=north;notch=0;rotation=-180;" vertex="1" parent="4F4TVd0Hu51OqxBF1fFu-1">
                    <mxGeometry x="410" y="2760" width="20" height="70" as="geometry"/>
                </mxCell>
                <mxCell id="5FN2btPV9bPS1GdaOODC-6" value="(input)" style="swimlane;fontStyle=1;align=center;verticalAlign=top;childLayout=stackLayout;horizontal=1;startSize=26;horizontalStack=0;resizeParent=1;resizeParentMax=0;resizeLast=0;collapsible=1;marginBottom=0;" vertex="1" parent="4F4TVd0Hu51OqxBF1fFu-1">
                    <mxGeometry x="170" y="2830" width="160" height="52" as="geometry"/>
                </mxCell>
                <mxCell id="5FN2btPV9bPS1GdaOODC-8" value="(output)" style="swimlane;fontStyle=1;align=center;verticalAlign=top;childLayout=stackLayout;horizontal=1;startSize=26;horizontalStack=0;resizeParent=1;resizeParentMax=0;resizeLast=0;collapsible=1;marginBottom=0;" vertex="1" parent="4F4TVd0Hu51OqxBF1fFu-1">
                    <mxGeometry x="390" y="2830" width="160" height="52" as="geometry"/>
                </mxCell>
                <mxCell id="5FN2btPV9bPS1GdaOODC-9" value="- List&lt;StyleCodeItem&gt;" style="text;strokeColor=none;fillColor=none;align=left;verticalAlign=top;spacingLeft=4;spacingRight=4;overflow=hidden;rotatable=0;points=[[0,0.5],[1,0.5]];portConstraint=eastwest;" vertex="1" parent="5FN2btPV9bPS1GdaOODC-8">
                    <mxGeometry y="26" width="160" height="26" as="geometry"/>
                </mxCell>
                <mxCell id="5FN2btPV9bPS1GdaOODC-10" value="Use" style="endArrow=open;endSize=12;dashed=1;html=1;entryX=0.5;entryY=0;entryDx=0;entryDy=0;" edge="1" parent="4F4TVd0Hu51OqxBF1fFu-1" source="5FN2btPV9bPS1GdaOODC-9" target="8BgOD9PKY-kKrmtGA4M8-0">
                    <mxGeometry width="160" relative="1" as="geometry">
                        <mxPoint x="360" y="2730" as="sourcePoint"/>
                        <mxPoint x="470" y="2920" as="targetPoint"/>
                        <Array as="points"/>
                    </mxGeometry>
                </mxCell>
                <mxCell id="8BgOD9PKY-kKrmtGA4M8-0" value="StlyeCodeItem" style="swimlane;fontStyle=1;align=center;verticalAlign=top;childLayout=stackLayout;horizontal=1;startSize=26;horizontalStack=0;resizeParent=1;resizeParentMax=0;resizeLast=0;collapsible=1;marginBottom=0;" vertex="1" parent="4F4TVd0Hu51OqxBF1fFu-1">
                    <mxGeometry x="390" y="2930" width="160" height="120" as="geometry"/>
                </mxCell>
                <mxCell id="8BgOD9PKY-kKrmtGA4M8-1" value="- code : String" style="text;strokeColor=none;fillColor=none;align=left;verticalAlign=top;spacingLeft=4;spacingRight=4;overflow=hidden;rotatable=0;points=[[0,0.5],[1,0.5]];portConstraint=eastwest;" vertex="1" parent="8BgOD9PKY-kKrmtGA4M8-0">
                    <mxGeometry y="26" width="160" height="26" as="geometry"/>
                </mxCell>
                <mxCell id="8BgOD9PKY-kKrmtGA4M8-2" value="" style="line;strokeWidth=1;fillColor=none;align=left;verticalAlign=middle;spacingTop=-1;spacingLeft=3;spacingRight=3;rotatable=0;labelPosition=right;points=[];portConstraint=eastwest;" vertex="1" parent="8BgOD9PKY-kKrmtGA4M8-0">
                    <mxGeometry y="52" width="160" height="8" as="geometry"/>
                </mxCell>
                <mxCell id="8BgOD9PKY-kKrmtGA4M8-3" value="- imgUrl : String" style="text;strokeColor=none;fillColor=none;align=left;verticalAlign=top;spacingLeft=4;spacingRight=4;overflow=hidden;rotatable=0;points=[[0,0.5],[1,0.5]];portConstraint=eastwest;" vertex="1" parent="8BgOD9PKY-kKrmtGA4M8-0">
                    <mxGeometry y="60" width="160" height="26" as="geometry"/>
                </mxCell>
                <mxCell id="8BgOD9PKY-kKrmtGA4M8-4" value="" style="line;strokeWidth=1;fillColor=none;align=left;verticalAlign=middle;spacingTop=-1;spacingLeft=3;spacingRight=3;rotatable=0;labelPosition=right;points=[];portConstraint=eastwest;" vertex="1" parent="8BgOD9PKY-kKrmtGA4M8-0">
                    <mxGeometry y="86" width="160" height="8" as="geometry"/>
                </mxCell>
                <mxCell id="8BgOD9PKY-kKrmtGA4M8-5" value="- description : String" style="text;strokeColor=none;fillColor=none;align=left;verticalAlign=top;spacingLeft=4;spacingRight=4;overflow=hidden;rotatable=0;points=[[0,0.5],[1,0.5]];portConstraint=eastwest;" vertex="1" parent="8BgOD9PKY-kKrmtGA4M8-0">
                    <mxGeometry y="94" width="160" height="26" as="geometry"/>
                </mxCell>
            </root>
        </mxGraphModel>
    </diagram>
</mxfile>